0
SECTION
2
HEADER
9
$INSUNITS
70
4
0
ENDSEC
0
SECTION
2
TABLES
0
TABLE
2
LTYPE
0
LTYPE
72
65
70
64
2
CONTINUOUS
3
______
73
0
40
0
0
ENDTAB
0
TABLE
2
LAYER
0
ENDTAB
0
ENDSEC
0
SECTION
2
ENTITIES
0
ARC
8
0
10
3.025
20
-16.025
40
0.5
50
180
51
270
0
ARC
8
0
10
16.025
20
-16.025
40
0.5
50
270
51
0
0
ARC
8
0
10
16.025
20
-3.025
40
0.5
50
0
51
90
0
ARC
8
0
10
3.025
20
-3.025
40
0.5
50
90
51
180
0
LINE
8
0
10
3.025
20
-16.525
11
16.025
21
-16.525
0
LINE
8
0
10
16.025
20
-2.525
11
3.025
21
-2.525
0
LINE
8
0
10
16.525
20
-16.025
11
16.525
21
-3.025
0
LINE
8
0
10
2.525
20
-3.025
11
2.525
21
-16.025
0
ARC
8
0
10
22.075
20
-16.025
40
0.5
50
180
51
270
0
ARC
8
0
10
35.075
20
-16.025
40
0.5
50
270
51
0
0
ARC
8
0
10
35.075
20
-3.025
40
0.5
50
0
51
90
0
ARC
8
0
10
22.075
20
-3.025
40
0.5
50
90
51
180
0
LINE
8
0
10
22.075
20
-16.525
11
35.075
21
-16.525
0
LINE
8
0
10
35.075
20
-2.525
11
22.075
21
-2.525
0
LINE
8
0
10
35.575
20
-16.025
11
35.575
21
-3.025
0
LINE
8
0
10
21.575
20
-3.025
11
21.575
21
-16.025
0
ARC
8
0
10
41.125
20
-16.025
40
0.5
50
180
51
270
0
ARC
8
0
10
54.125
20
-16.025
40
0.5
50
270
51
0
0
ARC
8
0
10
54.125
20
-3.025
40
0.5
50
0
51
90
0
ARC
8
0
10
41.125
20
-3.025
40
0.5
50
90
51
180
0
LINE
8
0
10
41.125
20
-16.525
11
54.125
21
-16.525
0
LINE
8
0
10
54.125
20
-2.525
11
41.125
21
-2.525
0
LINE
8
0
10
54.625
20
-16.025
11
54.625
21
-3.025
0
LINE
8
0
10
40.625
20
-3.025
11
40.625
21
-16.025
0
ARC
8
0
10
60.175
20
-16.025
40
0.5
50
180
51
270
0
ARC
8
0
10
73.175
20
-16.025
40
0.5
50
270
51
0
0
ARC
8
0
10
73.175
20
-3.025
40
0.5
50
0
51
90
0
ARC
8
0
10
60.175
20
-3.025
40
0.5
50
90
51
180
0
LINE
8
0
10
60.175
20
-16.525
11
73.175
21
-16.525
0
LINE
8
0
10
73.175
20
-2.525
11
60.175
21
-2.525
0
LINE
8
0
10
73.675
20
-16.025
11
73.675
21
-3.025
0
LINE
8
0
10
59.675
20
-3.025
11
59.675
21
-16.025
0
ARC
8
0
10
79.225
20
-16.025
40
0.5
50
180
51
270
0
ARC
8
0
10
92.225
20
-16.025
40
0.5
50
270
51
0
0
ARC
8
0
10
92.225
20
-3.025
40
0.5
50
0
51
90
0
ARC
8
0
10
79.225
20
-3.025
40
0.5
50
90
51
180
0
LINE
8
0
10
79.225
20
-16.525
11
92.225
21
-16.525
0
LINE
8
0
10
92.225
20
-2.525
11
79.225
21
-2.525
0
LINE
8
0
10
92.725
20
-16.025
11
92.725
21
-3.025
0
LINE
8
0
10
78.725
20
-3.025
11
78.725
21
-16.025
0
ARC
8
0
10
98.275
20
-16.025
40
0.5
50
180
51
270
0
ARC
8
0
10
111.275
20
-16.025
40
0.5
50
270
51
0
0
ARC
8
0
10
111.275
20
-3.025
40
0.5
50
0
51
90
0
ARC
8
0
10
98.275
20
-3.025
40
0.5
50
90
51
180
0
LINE
8
0
10
98.275
20
-16.525
11
111.275
21
-16.525
0
LINE
8
0
10
111.275
20
-2.525
11
98.275
21
-2.525
0
LINE
8
0
10
111.775
20
-16.025
11
111.775
21
-3.025
0
LINE
8
0
10
97.775
20
-3.025
11
97.775
21
-16.025
0
ARC
8
0
10
117.325
20
-16.025
40
0.5
50
180
51
270
0
ARC
8
0
10
130.325
20
-16.025
40
0.5
50
270
51
0
0
ARC
8
0
10
130.325
20
-3.025
40
0.5
50
0
51
90
0
ARC
8
0
10
117.325
20
-3.025
40
0.5
50
90
51
180
0
LINE
8
0
10
117.325
20
-16.525
11
130.325
21
-16.525
0
LINE
8
0
10
130.325
20
-2.525
11
117.325
21
-2.525
0
LINE
8
0
10
130.825
20
-16.025
11
130.825
21
-3.025
0
LINE
8
0
10
116.825
20
-3.025
11
116.825
21
-16.025
0
ARC
8
0
10
136.375
20
-16.025
40
0.5
50
180
51
270
0
ARC
8
0
10
149.375
20
-16.025
40
0.5
50
270
51
0
0
ARC
8
0
10
149.375
20
-3.025
40
0.5
50
0
51
90
0
ARC
8
0
10
136.375
20
-3.025
40
0.5
50
90
51
180
0
LINE
8
0
10
136.375
20
-16.525
11
149.375
21
-16.525
0
LINE
8
0
10
149.375
20
-2.525
11
136.375
21
-2.525
0
LINE
8
0
10
149.875
20
-16.025
11
149.875
21
-3.025
0
LINE
8
0
10
135.875
20
-3.025
11
135.875
21
-16.025
0
ARC
8
0
10
155.425
20
-16.025
40
0.5
50
180
51
270
0
ARC
8
0
10
168.425
20
-16.025
40
0.5
50
270
51
0
0
ARC
8
0
10
168.425
20
-3.025
40
0.5
50
0
51
90
0
ARC
8
0
10
155.425
20
-3.025
40
0.5
50
90
51
180
0
LINE
8
0
10
155.425
20
-16.525
11
168.425
21
-16.525
0
LINE
8
0
10
168.425
20
-2.525
11
155.425
21
-2.525
0
LINE
8
0
10
168.925
20
-16.025
11
168.925
21
-3.025
0
LINE
8
0
10
154.925
20
-3.025
11
154.925
21
-16.025
0
ARC
8
0
10
174.475
20
-16.025
40
0.5
50
180
51
270
0
ARC
8
0
10
187.475
20
-16.025
40
0.5
50
270
51
0
0
ARC
8
0
10
187.475
20
-3.025
40
0.5
50
0
51
90
0
ARC
8
0
10
174.475
20
-3.025
40
0.5
50
90
51
180
0
LINE
8
0
10
174.475
20
-16.525
11
187.475
21
-16.525
0
LINE
8
0
10
187.475
20
-2.525
11
174.475
21
-2.525
0
LINE
8
0
10
187.975
20
-16.025
11
187.975
21
-3.025
0
LINE
8
0
10
173.975
20
-3.025
11
173.975
21
-16.025
0
ARC
8
0
10
193.525
20
-16.025
40
0.5
50
180
51
270
0
ARC
8
0
10
206.525
20
-16.025
40
0.5
50
270
51
0
0
ARC
8
0
10
206.525
20
-3.025
40
0.5
50
0
51
90
0
ARC
8
0
10
193.525
20
-3.025
40
0.5
50
90
51
180
0
LINE
8
0
10
193.525
20
-16.525
11
206.525
21
-16.525
0
LINE
8
0
10
206.525
20
-2.525
11
193.525
21
-2.525
0
LINE
8
0
10
207.025
20
-16.025
11
207.025
21
-3.025
0
LINE
8
0
10
193.025
20
-3.025
11
193.025
21
-16.025
0
ARC
8
0
10
212.575
20
-16.025
40
0.5
50
180
51
270
0
ARC
8
0
10
225.575
20
-16.025
40
0.5
50
270
51
0
0
ARC
8
0
10
225.575
20
-3.025
40
0.5
50
0
51
90
0
ARC
8
0
10
212.575
20
-3.025
40
0.5
50
90
51
180
0
LINE
8
0
10
212.575
20
-16.525
11
225.575
21
-16.525
0
LINE
8
0
10
225.575
20
-2.525
11
212.575
21
-2.525
0
LINE
8
0
10
226.075
20
-16.025
11
226.075
21
-3.025
0
LINE
8
0
10
212.075
20
-3.025
11
212.075
21
-16.025
0
ARC
8
0
10
3.025
20
-35.075
40
0.5
50
180
51
270
0
ARC
8
0
10
16.025
20
-35.075
40
0.5
50
270
51
0
0
ARC
8
0
10
16.025
20
-22.075
40
0.5
50
0
51
90
0
ARC
8
0
10
3.025
20
-22.075
40
0.5
50
90
51
180
0
LINE
8
0
10
3.025
20
-35.575
11
16.025
21
-35.575
0
LINE
8
0
10
16.025
20
-21.575
11
3.025
21
-21.575
0
LINE
8
0
10
16.525
20
-35.075
11
16.525
21
-22.075
0
LINE
8
0
10
2.525
20
-22.075
11
2.525
21
-35.075
0
ARC
8
0
10
22.075
20
-35.075
40
0.5
50
180
51
270
0
ARC
8
0
10
35.075
20
-35.075
40
0.5
50
270
51
0
0
ARC
8
0
10
35.075
20
-22.075
40
0.5
50
0
51
90
0
ARC
8
0
10
22.075
20
-22.075
40
0.5
50
90
51
180
0
LINE
8
0
10
22.075
20
-35.575
11
35.075
21
-35.575
0
LINE
8
0
10
35.075
20
-21.575
11
22.075
21
-21.575
0
LINE
8
0
10
35.575
20
-35.075
11
35.575
21
-22.075
0
LINE
8
0
10
21.575
20
-22.075
11
21.575
21
-35.075
0
ARC
8
0
10
41.125
20
-35.075
40
0.5
50
180
51
270
0
ARC
8
0
10
54.125
20
-35.075
40
0.5
50
270
51
0
0
ARC
8
0
10
54.125
20
-22.075
40
0.5
50
0
51
90
0
ARC
8
0
10
41.125
20
-22.075
40
0.5
50
90
51
180
0
LINE
8
0
10
41.125
20
-35.575
11
54.125
21
-35.575
0
LINE
8
0
10
54.125
20
-21.575
11
41.125
21
-21.575
0
LINE
8
0
10
54.625
20
-35.075
11
54.625
21
-22.075
0
LINE
8
0
10
40.625
20
-22.075
11
40.625
21
-35.075
0
ARC
8
0
10
60.175
20
-35.075
40
0.5
50
180
51
270
0
ARC
8
0
10
73.175
20
-35.075
40
0.5
50
270
51
0
0
ARC
8
0
10
73.175
20
-22.075
40
0.5
50
0
51
90
0
ARC
8
0
10
60.175
20
-22.075
40
0.5
50
90
51
180
0
LINE
8
0
10
60.175
20
-35.575
11
73.175
21
-35.575
0
LINE
8
0
10
73.175
20
-21.575
11
60.175
21
-21.575
0
LINE
8
0
10
73.675
20
-35.075
11
73.675
21
-22.075
0
LINE
8
0
10
59.675
20
-22.075
11
59.675
21
-35.075
0
ARC
8
0
10
79.225
20
-35.075
40
0.5
50
180
51
270
0
ARC
8
0
10
92.225
20
-35.075
40
0.5
50
270
51
0
0
ARC
8
0
10
92.225
20
-22.075
40
0.5
50
0
51
90
0
ARC
8
0
10
79.225
20
-22.075
40
0.5
50
90
51
180
0
LINE
8
0
10
79.225
20
-35.575
11
92.225
21
-35.575
0
LINE
8
0
10
92.225
20
-21.575
11
79.225
21
-21.575
0
LINE
8
0
10
92.725
20
-35.075
11
92.725
21
-22.075
0
LINE
8
0
10
78.725
20
-22.075
11
78.725
21
-35.075
0
ARC
8
0
10
98.275
20
-35.075
40
0.5
50
180
51
270
0
ARC
8
0
10
111.275
20
-35.075
40
0.5
50
270
51
0
0
ARC
8
0
10
111.275
20
-22.075
40
0.5
50
0
51
90
0
ARC
8
0
10
98.275
20
-22.075
40
0.5
50
90
51
180
0
LINE
8
0
10
98.275
20
-35.575
11
111.275
21
-35.575
0
LINE
8
0
10
111.275
20
-21.575
11
98.275
21
-21.575
0
LINE
8
0
10
111.775
20
-35.075
11
111.775
21
-22.075
0
LINE
8
0
10
97.775
20
-22.075
11
97.775
21
-35.075
0
ARC
8
0
10
117.325
20
-35.075
40
0.5
50
180
51
270
0
ARC
8
0
10
130.325
20
-35.075
40
0.5
50
270
51
0
0
ARC
8
0
10
130.325
20
-22.075
40
0.5
50
0
51
90
0
ARC
8
0
10
117.325
20
-22.075
40
0.5
50
90
51
180
0
LINE
8
0
10
117.325
20
-35.575
11
130.325
21
-35.575
0
LINE
8
0
10
130.325
20
-21.575
11
117.325
21
-21.575
0
LINE
8
0
10
130.825
20
-35.075
11
130.825
21
-22.075
0
LINE
8
0
10
116.825
20
-22.075
11
116.825
21
-35.075
0
ARC
8
0
10
136.375
20
-35.075
40
0.5
50
180
51
270
0
ARC
8
0
10
149.375
20
-35.075
40
0.5
50
270
51
0
0
ARC
8
0
10
149.375
20
-22.075
40
0.5
50
0
51
90
0
ARC
8
0
10
136.375
20
-22.075
40
0.5
50
90
51
180
0
LINE
8
0
10
136.375
20
-35.575
11
149.375
21
-35.575
0
LINE
8
0
10
149.375
20
-21.575
11
136.375
21
-21.575
0
LINE
8
0
10
149.875
20
-35.075
11
149.875
21
-22.075
0
LINE
8
0
10
135.875
20
-22.075
11
135.875
21
-35.075
0
ARC
8
0
10
155.425
20
-35.075
40
0.5
50
180
51
270
0
ARC
8
0
10
168.425
20
-35.075
40
0.5
50
270
51
0
0
ARC
8
0
10
168.425
20
-22.075
40
0.5
50
0
51
90
0
ARC
8
0
10
155.425
20
-22.075
40
0.5
50
90
51
180
0
LINE
8
0
10
155.425
20
-35.575
11
168.425
21
-35.575
0
LINE
8
0
10
168.425
20
-21.575
11
155.425
21
-21.575
0
LINE
8
0
10
168.925
20
-35.075
11
168.925
21
-22.075
0
LINE
8
0
10
154.925
20
-22.075
11
154.925
21
-35.075
0
ARC
8
0
10
174.475
20
-35.075
40
0.5
50
180
51
270
0
ARC
8
0
10
187.475
20
-35.075
40
0.5
50
270
51
0
0
ARC
8
0
10
187.475
20
-22.075
40
0.5
50
0
51
90
0
ARC
8
0
10
174.475
20
-22.075
40
0.5
50
90
51
180
0
LINE
8
0
10
174.475
20
-35.575
11
187.475
21
-35.575
0
LINE
8
0
10
187.475
20
-21.575
11
174.475
21
-21.575
0
LINE
8
0
10
187.975
20
-35.075
11
187.975
21
-22.075
0
LINE
8
0
10
173.975
20
-22.075
11
173.975
21
-35.075
0
ARC
8
0
10
193.525
20
-35.075
40
0.5
50
180
51
270
0
ARC
8
0
10
206.525
20
-35.075
40
0.5
50
270
51
0
0
ARC
8
0
10
206.525
20
-22.075
40
0.5
50
0
51
90
0
ARC
8
0
10
193.525
20
-22.075
40
0.5
50
90
51
180
0
LINE
8
0
10
193.525
20
-35.575
11
206.525
21
-35.575
0
LINE
8
0
10
206.525
20
-21.575
11
193.525
21
-21.575
0
LINE
8
0
10
207.025
20
-35.075
11
207.025
21
-22.075
0
LINE
8
0
10
193.025
20
-22.075
11
193.025
21
-35.075
0
ARC
8
0
10
212.575
20
-35.075
40
0.5
50
180
51
270
0
ARC
8
0
10
225.575
20
-35.075
40
0.5
50
270
51
0
0
ARC
8
0
10
225.575
20
-22.075
40
0.5
50
0
51
90
0
ARC
8
0
10
212.575
20
-22.075
40
0.5
50
90
51
180
0
LINE
8
0
10
212.575
20
-35.575
11
225.575
21
-35.575
0
LINE
8
0
10
225.575
20
-21.575
11
212.575
21
-21.575
0
LINE
8
0
10
226.075
20
-35.075
11
226.075
21
-22.075
0
LINE
8
0
10
212.075
20
-22.075
11
212.075
21
-35.075
0
ARC
8
0
10
10.16875
20
-54.125
40
0.5
50
180
51
270
0
ARC
8
0
10
23.16875
20
-54.125
40
0.5
50
270
51
0
0
ARC
8
0
10
23.16875
20
-41.125
40
0.5
50
0
51
90
0
ARC
8
0
10
10.16875
20
-41.125
40
0.5
50
90
51
180
0
LINE
8
0
10
10.16875
20
-54.625
11
23.16875
21
-54.625
0
LINE
8
0
10
23.16875
20
-40.625
11
10.16875
21
-40.625
0
LINE
8
0
10
23.66875
20
-54.125
11
23.66875
21
-41.125
0
LINE
8
0
10
9.66875
20
-41.125
11
9.66875
21
-54.125
0
ARC
8
0
10
31.6
20
-54.125
40
0.5
50
180
51
270
0
ARC
8
0
10
44.6
20
-54.125
40
0.5
50
270
51
0
0
ARC
8
0
10
44.6
20
-41.125
40
0.5
50
0
51
90
0
ARC
8
0
10
31.6
20
-41.125
40
0.5
50
90
51
180
0
LINE
8
0
10
31.6
20
-54.625
11
44.6
21
-54.625
0
LINE
8
0
10
44.6
20
-40.625
11
31.6
21
-40.625
0
LINE
8
0
10
45.1
20
-54.125
11
45.1
21
-41.125
0
LINE
8
0
10
31.1
20
-41.125
11
31.1
21
-54.125
0
ARC
8
0
10
50.65
20
-54.125
40
0.5
50
180
51
270
0
ARC
8
0
10
63.65
20
-54.125
40
0.5
50
270
51
0
0
ARC
8
0
10
63.65
20
-41.125
40
0.5
50
0
51
90
0
ARC
8
0
10
50.65
20
-41.125
40
0.5
50
90
51
180
0
LINE
8
0
10
50.65
20
-54.625
11
63.65
21
-54.625
0
LINE
8
0
10
63.65
20
-40.625
11
50.65
21
-40.625
0
LINE
8
0
10
64.15
20
-54.125
11
64.15
21
-41.125
0
LINE
8
0
10
50.15
20
-41.125
11
50.15
21
-54.125
0
ARC
8
0
10
69.7
20
-54.125
40
0.5
50
180
51
270
0
ARC
8
0
10
82.7
20
-54.125
40
0.5
50
270
51
0
0
ARC
8
0
10
82.7
20
-41.125
40
0.5
50
0
51
90
0
ARC
8
0
10
69.7
20
-41.125
40
0.5
50
90
51
180
0
LINE
8
0
10
69.7
20
-54.625
11
82.7
21
-54.625
0
LINE
8
0
10
82.7
20
-40.625
11
69.7
21
-40.625
0
LINE
8
0
10
83.2
20
-54.125
11
83.2
21
-41.125
0
LINE
8
0
10
69.2
20
-41.125
11
69.2
21
-54.125
0
ARC
8
0
10
88.75
20
-54.125
40
0.5
50
180
51
270
0
ARC
8
0
10
101.75
20
-54.125
40
0.5
50
270
51
0
0
ARC
8
0
10
101.75
20
-41.125
40
0.5
50
0
51
90
0
ARC
8
0
10
88.75
20
-41.125
40
0.5
50
90
51
180
0
LINE
8
0
10
88.75
20
-54.625
11
101.75
21
-54.625
0
LINE
8
0
10
101.75
20
-40.625
11
88.75
21
-40.625
0
LINE
8
0
10
102.25
20
-54.125
11
102.25
21
-41.125
0
LINE
8
0
10
88.25
20
-41.125
11
88.25
21
-54.125
0
ARC
8
0
10
107.8
20
-54.125
40
0.5
50
180
51
270
0
ARC
8
0
10
120.8
20
-54.125
40
0.5
50
270
51
0
0
ARC
8
0
10
120.8
20
-41.125
40
0.5
50
0
51
90
0
ARC
8
0
10
107.8
20
-41.125
40
0.5
50
90
51
180
0
LINE
8
0
10
107.8
20
-54.625
11
120.8
21
-54.625
0
LINE
8
0
10
120.8
20
-40.625
11
107.8
21
-40.625
0
LINE
8
0
10
121.3
20
-54.125
11
121.3
21
-41.125
0
LINE
8
0
10
107.3
20
-41.125
11
107.3
21
-54.125
0
ARC
8
0
10
126.85
20
-54.125
40
0.5
50
180
51
270
0
ARC
8
0
10
139.85
20
-54.125
40
0.5
50
270
51
0
0
ARC
8
0
10
139.85
20
-41.125
40
0.5
50
0
51
90
0
ARC
8
0
10
126.85
20
-41.125
40
0.5
50
90
51
180
0
LINE
8
0
10
126.85
20
-54.625
11
139.85
21
-54.625
0
LINE
8
0
10
139.85
20
-40.625
11
126.85
21
-40.625
0
LINE
8
0
10
140.35
20
-54.125
11
140.35
21
-41.125
0
LINE
8
0
10
126.35
20
-41.125
11
126.35
21
-54.125
0
ARC
8
0
10
145.9
20
-54.125
40
0.5
50
180
51
270
0
ARC
8
0
10
158.9
20
-54.125
40
0.5
50
270
51
0
0
ARC
8
0
10
158.9
20
-41.125
40
0.5
50
0
51
90
0
ARC
8
0
10
145.9
20
-41.125
40
0.5
50
90
51
180
0
LINE
8
0
10
145.9
20
-54.625
11
158.9
21
-54.625
0
LINE
8
0
10
158.9
20
-40.625
11
145.9
21
-40.625
0
LINE
8
0
10
159.4
20
-54.125
11
159.4
21
-41.125
0
LINE
8
0
10
145.4
20
-41.125
11
145.4
21
-54.125
0
ARC
8
0
10
164.95
20
-54.125
40
0.5
50
180
51
270
0
ARC
8
0
10
177.95
20
-54.125
40
0.5
50
270
51
0
0
ARC
8
0
10
177.95
20
-41.125
40
0.5
50
0
51
90
0
ARC
8
0
10
164.95
20
-41.125
40
0.5
50
90
51
180
0
LINE
8
0
10
164.95
20
-54.625
11
177.95
21
-54.625
0
LINE
8
0
10
177.95
20
-40.625
11
164.95
21
-40.625
0
LINE
8
0
10
178.45
20
-54.125
11
178.45
21
-41.125
0
LINE
8
0
10
164.45
20
-41.125
11
164.45
21
-54.125
0
ARC
8
0
10
184
20
-54.125
40
0.5
50
180
51
270
0
ARC
8
0
10
197
20
-54.125
40
0.5
50
270
51
0
0
ARC
8
0
10
197
20
-41.125
40
0.5
50
0
51
90
0
ARC
8
0
10
184
20
-41.125
40
0.5
50
90
51
180
0
LINE
8
0
10
184
20
-54.625
11
197
21
-54.625
0
LINE
8
0
10
197
20
-40.625
11
184
21
-40.625
0
LINE
8
0
10
197.5
20
-54.125
11
197.5
21
-41.125
0
LINE
8
0
10
183.5
20
-41.125
11
183.5
21
-54.125
0
ARC
8
0
10
210.19375
20
-63.65
40
0.5
50
180
51
270
0
ARC
8
0
10
223.19375
20
-63.65
40
0.5
50
270
51
0
0
ARC
8
0
10
223.19375
20
-50.65
40
0.5
50
0
51
90
0
ARC
8
0
10
210.19375
20
-50.65
40
0.5
50
90
51
180
0
LINE
8
0
10
210.19375
20
-64.15
11
223.19375
21
-64.15
0
LINE
8
0
10
223.19375
20
-50.15
11
210.19375
21
-50.15
0
LINE
8
0
10
223.69375
20
-63.65
11
223.69375
21
-50.65
0
LINE
8
0
10
209.69375
20
-50.65
11
209.69375
21
-63.65
0
ARC
8
0
10
208.19375
20
-42.212
40
0.5
50
90
51
180
0
ARC
8
0
10
208.19375
20
-48.212
40
0.5
50
180
51
270
0
ARC
8
0
10
226.69375
20
-48.212
40
0.5
50
270
51
0
0
ARC
8
0
10
226.69375
20
-42.212
40
0.5
50
0
51
90
0
LINE
8
0
10
207.69375
20
-42.212
11
207.69375
21
-48.212
0
LINE
8
0
10
227.19375
20
-48.212
11
227.19375
21
-42.212
0
LINE
8
0
10
208.19375
20
-48.712
11
226.69375
21
-48.712
0
LINE
8
0
10
226.69375
20
-41.712
11
208.19375
21
-41.712
0
ARC
8
0
10
208.19375
20
-66.088
40
0.5
50
90
51
180
0
ARC
8
0
10
208.19375
20
-72.088
40
0.5
50
180
51
270
0
ARC
8
0
10
226.69375
20
-72.088
40
0.5
50
270
51
0
0
ARC
8
0
10
226.69375
20
-66.088
40
0.5
50
0
51
90
0
LINE
8
0
10
207.69375
20
-66.088
11
207.69375
21
-72.088
0
LINE
8
0
10
227.19375
20
-72.088
11
227.19375
21
-66.088
0
LINE
8
0
10
208.19375
20
-72.588
11
226.69375
21
-72.588
0
LINE
8
0
10
226.69375
20
-65.588
11
208.19375
21
-65.588
0
ARC
8
0
10
5.40625
20
-73.175
40
0.5
50
180
51
270
0
ARC
8
0
10
18.40625
20
-73.175
40
0.5
50
270
51
0
0
ARC
8
0
10
18.40625
20
-60.175
40
0.5
50
0
51
90
0
ARC
8
0
10
5.40625
20
-60.175
40
0.5
50
90
51
180
0
LINE
8
0
10
5.40625
20
-73.675
11
18.40625
21
-73.675
0
LINE
8
0
10
18.40625
20
-59.675
11
5.40625
21
-59.675
0
LINE
8
0
10
18.90625
20
-73.175
11
18.90625
21
-60.175
0
LINE
8
0
10
4.90625
20
-60.175
11
4.90625
21
-73.175
0
ARC
8
0
10
31.6
20
-77.9375
40
0.5
50
180
51
270
0
ARC
8
0
10
44.6
20
-77.9375
40
0.5
50
270
51
0
0
ARC
8
0
10
44.6
20
-64.9375
40
0.5
50
0
51
90
0
ARC
8
0
10
31.6
20
-64.9375
40
0.5
50
90
51
180
0
LINE
8
0
10
31.6
20
-78.4375
11
44.6
21
-78.4375
0
LINE
8
0
10
44.6
20
-64.4375
11
31.6
21
-64.4375
0
LINE
8
0
10
45.1
20
-77.9375
11
45.1
21
-64.9375
0
LINE
8
0
10
31.1
20
-64.9375
11
31.1
21
-77.9375
0
ARC
8
0
10
107.8
20
-77.9375
40
0.5
50
180
51
270
0
ARC
8
0
10
120.8
20
-77.9375
40
0.5
50
270
51
0
0
ARC
8
0
10
120.8
20
-64.9375
40
0.5
50
0
51
90
0
ARC
8
0
10
107.8
20
-64.9375
40
0.5
50
90
51
180
0
LINE
8
0
10
107.8
20
-78.4375
11
120.8
21
-78.4375
0
LINE
8
0
10
120.8
20
-64.4375
11
107.8
21
-64.4375
0
LINE
8
0
10
121.3
20
-77.9375
11
121.3
21
-64.9375
0
LINE
8
0
10
107.3
20
-64.9375
11
107.3
21
-77.9375
0
ARC
8
0
10
54.15
20
-79.9375
40
0.5
50
180
51
270
0
ARC
8
0
10
60.15
20
-79.9375
40
0.5
50
270
51
0
0
ARC
8
0
10
60.15
20
-61.4375
40
0.5
50
0
51
90
0
ARC
8
0
10
54.15
20
-61.4375
40
0.5
50
90
51
180
0
LINE
8
0
10
54.15
20
-80.4375
11
60.15
21
-80.4375
0
LINE
8
0
10
60.15
20
-60.9375
11
54.15
21
-60.9375
0
LINE
8
0
10
60.65
20
-79.9375
11
60.65
21
-61.4375
0
LINE
8
0
10
53.65
20
-61.4375
11
53.65
21
-79.9375
0
ARC
8
0
10
168.45
20
-79.9375
40
0.5
50
180
51
270
0
ARC
8
0
10
174.45
20
-79.9375
40
0.5
50
270
51
0
0
ARC
8
0
10
174.45
20
-61.4375
40
0.5
50
0
51
90
0
ARC
8
0
10
168.45
20
-61.4375
40
0.5
50
90
51
180
0
LINE
8
0
10
168.45
20
-80.4375
11
174.45
21
-80.4375
0
LINE
8
0
10
174.45
20
-60.9375
11
168.45
21
-60.9375
0
LINE
8
0
10
174.95
20
-79.9375
11
174.95
21
-61.4375
0
LINE
8
0
10
167.95
20
-61.4375
11
167.95
21
-79.9375
0
ARC
8
0
10
184
20
-77.9375
40
0.5
50
180
51
270
0
ARC
8
0
10
197
20
-77.9375
40
0.5
50
270
51
0
0
ARC
8
0
10
197
20
-64.9375
40
0.5
50
0
51
90
0
ARC
8
0
10
184
20
-64.9375
40
0.5
50
90
51
180
0
LINE
8
0
10
184
20
-78.4375
11
197
21
-78.4375
0
LINE
8
0
10
197
20
-64.4375
11
184
21
-64.4375
0
LINE
8
0
10
197.5
20
-77.9375
11
197.5
21
-64.9375
0
LINE
8
0
10
183.5
20
-64.9375
11
183.5
21
-77.9375
0
ENDSEC
0
EOF