G04 #@! TF.GenerationSoftware,KiCad,Pcbnew,7.0.11-7.0.11~ubuntu22.04.1*
G04 #@! TF.CreationDate,2024-06-29T22:10:39+02:00*
G04 #@! TF.ProjectId,vorona-pcb,766f726f-6e61-42d7-9063-622e6b696361,rev?*
G04 #@! TF.SameCoordinates,Original*
G04 #@! TF.FileFunction,Profile,NP*
%FSLAX46Y46*%
G04 Gerber Fmt 4.6, Leading zero omitted, Abs format (unit mm)*
G04 Created by KiCad (PCBNEW 7.0.11-7.0.11~ubuntu22.04.1) date 2024-06-29 22:10:39*
%MOMM*%
%LPD*%
G01*
G04 APERTURE LIST*
G04 #@! TA.AperFunction,Profile*
%ADD10C,0.100000*%
G04 #@! TD*
G04 APERTURE END LIST*
D10*
X27000000Y-25000000D02*
X251600000Y-25000000D01*
X22000000Y-64600000D02*
X22000000Y-65600000D01*
X24000000Y-63600000D02*
X23000000Y-63600000D01*
X251600000Y-101200000D02*
X231787500Y-101200000D01*
X23000000Y-63600000D02*
G75*
G03*
X22000000Y-64600000I0J-1000000D01*
G01*
X25000000Y-99200000D02*
X25000000Y-82650000D01*
X24000000Y-81650000D02*
X23000000Y-81650000D01*
X25000000Y-99200000D02*
G75*
G03*
X27000000Y-101200000I2000000J0D01*
G01*
X48812500Y-103962500D02*
X48812500Y-103200000D01*
X24000000Y-63600000D02*
G75*
G03*
X25000000Y-62600000I0J1000000D01*
G01*
X253600000Y-27000000D02*
G75*
G03*
X251600000Y-25000000I-2000000J0D01*
G01*
X22000000Y-65600000D02*
X22000000Y-79650000D01*
X227787500Y-105962500D02*
G75*
G03*
X229787500Y-103962500I0J2000000D01*
G01*
X27000000Y-25000000D02*
G75*
G03*
X25000000Y-27000000I0J-2000000D01*
G01*
X227787500Y-105962500D02*
X50812500Y-105962500D01*
X48812500Y-103200000D02*
G75*
G03*
X46812500Y-101200000I-2000000J0D01*
G01*
X46812500Y-101200000D02*
X27000000Y-101200000D01*
X253600000Y-27000000D02*
X253600000Y-99200000D01*
X48812500Y-103962500D02*
G75*
G03*
X50812500Y-105962500I2000000J0D01*
G01*
X25000000Y-27000000D02*
X25000000Y-62600000D01*
X251600000Y-101200000D02*
G75*
G03*
X253600000Y-99200000I0J2000000D01*
G01*
X231787500Y-101200000D02*
G75*
G03*
X229787500Y-103200000I0J-2000000D01*
G01*
X25000000Y-82650000D02*
G75*
G03*
X24000000Y-81650000I-1000000J0D01*
G01*
X22000000Y-80650000D02*
G75*
G03*
X23000000Y-81650000I1000000J0D01*
G01*
X22000000Y-80650000D02*
X22000000Y-79650000D01*
X229787500Y-103200000D02*
X229787500Y-103962500D01*
M02*
