G04 #@! TF.GenerationSoftware,KiCad,Pcbnew,7.0.11-7.0.11~ubuntu22.04.1*
G04 #@! TF.CreationDate,2024-06-29T22:10:39+02:00*
G04 #@! TF.ProjectId,vorona-pcb,766f726f-6e61-42d7-9063-622e6b696361,rev?*
G04 #@! TF.SameCoordinates,Original*
G04 #@! TF.FileFunction,Legend,Bot*
G04 #@! TF.FilePolarity,Positive*
%FSLAX46Y46*%
G04 Gerber Fmt 4.6, Leading zero omitted, Abs format (unit mm)*
G04 Created by KiCad (PCBNEW 7.0.11-7.0.11~ubuntu22.04.1) date 2024-06-29 22:10:39*
%MOMM*%
%LPD*%
G01*
G04 APERTURE LIST*
G04 Aperture macros list*
%AMRoundRect*
0 Rectangle with rounded corners*
0 $1 Rounding radius*
0 $2 $3 $4 $5 $6 $7 $8 $9 X,Y pos of 4 corners*
0 Add a 4 corners polygon primitive as box body*
4,1,4,$2,$3,$4,$5,$6,$7,$8,$9,$2,$3,0*
0 Add four circle primitives for the rounded corners*
1,1,$1+$1,$2,$3*
1,1,$1+$1,$4,$5*
1,1,$1+$1,$6,$7*
1,1,$1+$1,$8,$9*
0 Add four rect primitives between the rounded corners*
20,1,$1+$1,$2,$3,$4,$5,0*
20,1,$1+$1,$4,$5,$6,$7,0*
20,1,$1+$1,$6,$7,$8,$9,0*
20,1,$1+$1,$8,$9,$2,$3,0*%
G04 Aperture macros list end*
%ADD10C,0.100000*%
%ADD11C,0.150000*%
%ADD12C,1.750000*%
%ADD13C,3.987800*%
%ADD14C,3.300000*%
%ADD15RoundRect,0.250000X1.025000X1.000000X-1.025000X1.000000X-1.025000X-1.000000X1.025000X-1.000000X0*%
%ADD16R,1.800000X1.800000*%
%ADD17C,1.800000*%
%ADD18RoundRect,0.250000X-1.025000X-1.000000X1.025000X-1.000000X1.025000X1.000000X-1.025000X1.000000X0*%
%ADD19C,2.000000*%
%ADD20RoundRect,0.500000X-0.500000X-0.500000X0.500000X-0.500000X0.500000X0.500000X-0.500000X0.500000X0*%
%ADD21RoundRect,0.500000X0.500000X0.500000X-0.500000X0.500000X-0.500000X-0.500000X0.500000X-0.500000X0*%
%ADD22C,0.850000*%
%ADD23RoundRect,0.090000X-0.210000X-0.535000X0.210000X-0.535000X0.210000X0.535000X-0.210000X0.535000X0*%
%ADD24RoundRect,0.105000X-0.445000X0.245000X-0.445000X-0.245000X0.445000X-0.245000X0.445000X0.245000X0*%
%ADD25RoundRect,0.225000X-0.375000X0.225000X-0.375000X-0.225000X0.375000X-0.225000X0.375000X0.225000X0*%
%ADD26RoundRect,0.225000X0.375000X-0.225000X0.375000X0.225000X-0.375000X0.225000X-0.375000X-0.225000X0*%
%ADD27C,3.048000*%
%ADD28C,4.000000*%
%ADD29O,1.750000X1.200000*%
%ADD30RoundRect,0.250000X-0.625000X0.350000X-0.625000X-0.350000X0.625000X-0.350000X0.625000X0.350000X0*%
G04 APERTURE END LIST*
D10*
X137102419Y-30902857D02*
X136102419Y-30902857D01*
X136483371Y-30902857D02*
X136435752Y-30998095D01*
X136435752Y-30998095D02*
X136435752Y-31188571D01*
X136435752Y-31188571D02*
X136483371Y-31283809D01*
X136483371Y-31283809D02*
X136530990Y-31331428D01*
X136530990Y-31331428D02*
X136626228Y-31379047D01*
X136626228Y-31379047D02*
X136911942Y-31379047D01*
X136911942Y-31379047D02*
X137007180Y-31331428D01*
X137007180Y-31331428D02*
X137054800Y-31283809D01*
X137054800Y-31283809D02*
X137102419Y-31188571D01*
X137102419Y-31188571D02*
X137102419Y-30998095D01*
X137102419Y-30998095D02*
X137054800Y-30902857D01*
X136435752Y-32236190D02*
X137102419Y-32236190D01*
X136435752Y-31807619D02*
X136959561Y-31807619D01*
X136959561Y-31807619D02*
X137054800Y-31855238D01*
X137054800Y-31855238D02*
X137102419Y-31950476D01*
X137102419Y-31950476D02*
X137102419Y-32093333D01*
X137102419Y-32093333D02*
X137054800Y-32188571D01*
X137054800Y-32188571D02*
X137007180Y-32236190D01*
X137054800Y-32664762D02*
X137102419Y-32760000D01*
X137102419Y-32760000D02*
X137102419Y-32950476D01*
X137102419Y-32950476D02*
X137054800Y-33045714D01*
X137054800Y-33045714D02*
X136959561Y-33093333D01*
X136959561Y-33093333D02*
X136911942Y-33093333D01*
X136911942Y-33093333D02*
X136816704Y-33045714D01*
X136816704Y-33045714D02*
X136769085Y-32950476D01*
X136769085Y-32950476D02*
X136769085Y-32807619D01*
X136769085Y-32807619D02*
X136721466Y-32712381D01*
X136721466Y-32712381D02*
X136626228Y-32664762D01*
X136626228Y-32664762D02*
X136578609Y-32664762D01*
X136578609Y-32664762D02*
X136483371Y-32712381D01*
X136483371Y-32712381D02*
X136435752Y-32807619D01*
X136435752Y-32807619D02*
X136435752Y-32950476D01*
X136435752Y-32950476D02*
X136483371Y-33045714D01*
X136435752Y-33426667D02*
X137102419Y-33664762D01*
X136435752Y-33902857D02*
X137102419Y-33664762D01*
X137102419Y-33664762D02*
X137340514Y-33569524D01*
X137340514Y-33569524D02*
X137388133Y-33521905D01*
X137388133Y-33521905D02*
X137435752Y-33426667D01*
X137054800Y-34998096D02*
X137102419Y-35093334D01*
X137102419Y-35093334D02*
X137102419Y-35283810D01*
X137102419Y-35283810D02*
X137054800Y-35379048D01*
X137054800Y-35379048D02*
X136959561Y-35426667D01*
X136959561Y-35426667D02*
X136911942Y-35426667D01*
X136911942Y-35426667D02*
X136816704Y-35379048D01*
X136816704Y-35379048D02*
X136769085Y-35283810D01*
X136769085Y-35283810D02*
X136769085Y-35140953D01*
X136769085Y-35140953D02*
X136721466Y-35045715D01*
X136721466Y-35045715D02*
X136626228Y-34998096D01*
X136626228Y-34998096D02*
X136578609Y-34998096D01*
X136578609Y-34998096D02*
X136483371Y-35045715D01*
X136483371Y-35045715D02*
X136435752Y-35140953D01*
X136435752Y-35140953D02*
X136435752Y-35283810D01*
X136435752Y-35283810D02*
X136483371Y-35379048D01*
X137102419Y-35855239D02*
X136435752Y-35855239D01*
X136102419Y-35855239D02*
X136150038Y-35807620D01*
X136150038Y-35807620D02*
X136197657Y-35855239D01*
X136197657Y-35855239D02*
X136150038Y-35902858D01*
X136150038Y-35902858D02*
X136102419Y-35855239D01*
X136102419Y-35855239D02*
X136197657Y-35855239D01*
X137102419Y-36760000D02*
X136102419Y-36760000D01*
X137054800Y-36760000D02*
X137102419Y-36664762D01*
X137102419Y-36664762D02*
X137102419Y-36474286D01*
X137102419Y-36474286D02*
X137054800Y-36379048D01*
X137054800Y-36379048D02*
X137007180Y-36331429D01*
X137007180Y-36331429D02*
X136911942Y-36283810D01*
X136911942Y-36283810D02*
X136626228Y-36283810D01*
X136626228Y-36283810D02*
X136530990Y-36331429D01*
X136530990Y-36331429D02*
X136483371Y-36379048D01*
X136483371Y-36379048D02*
X136435752Y-36474286D01*
X136435752Y-36474286D02*
X136435752Y-36664762D01*
X136435752Y-36664762D02*
X136483371Y-36760000D01*
X137054800Y-37617143D02*
X137102419Y-37521905D01*
X137102419Y-37521905D02*
X137102419Y-37331429D01*
X137102419Y-37331429D02*
X137054800Y-37236191D01*
X137054800Y-37236191D02*
X136959561Y-37188572D01*
X136959561Y-37188572D02*
X136578609Y-37188572D01*
X136578609Y-37188572D02*
X136483371Y-37236191D01*
X136483371Y-37236191D02*
X136435752Y-37331429D01*
X136435752Y-37331429D02*
X136435752Y-37521905D01*
X136435752Y-37521905D02*
X136483371Y-37617143D01*
X136483371Y-37617143D02*
X136578609Y-37664762D01*
X136578609Y-37664762D02*
X136673847Y-37664762D01*
X136673847Y-37664762D02*
X136769085Y-37188572D01*
X138045752Y-29807618D02*
X138045752Y-30188570D01*
X137712419Y-29950475D02*
X138569561Y-29950475D01*
X138569561Y-29950475D02*
X138664800Y-29998094D01*
X138664800Y-29998094D02*
X138712419Y-30093332D01*
X138712419Y-30093332D02*
X138712419Y-30188570D01*
X138712419Y-30664761D02*
X138664800Y-30569523D01*
X138664800Y-30569523D02*
X138617180Y-30521904D01*
X138617180Y-30521904D02*
X138521942Y-30474285D01*
X138521942Y-30474285D02*
X138236228Y-30474285D01*
X138236228Y-30474285D02*
X138140990Y-30521904D01*
X138140990Y-30521904D02*
X138093371Y-30569523D01*
X138093371Y-30569523D02*
X138045752Y-30664761D01*
X138045752Y-30664761D02*
X138045752Y-30807618D01*
X138045752Y-30807618D02*
X138093371Y-30902856D01*
X138093371Y-30902856D02*
X138140990Y-30950475D01*
X138140990Y-30950475D02*
X138236228Y-30998094D01*
X138236228Y-30998094D02*
X138521942Y-30998094D01*
X138521942Y-30998094D02*
X138617180Y-30950475D01*
X138617180Y-30950475D02*
X138664800Y-30902856D01*
X138664800Y-30902856D02*
X138712419Y-30807618D01*
X138712419Y-30807618D02*
X138712419Y-30664761D01*
X138045752Y-31331428D02*
X138712419Y-31521904D01*
X138712419Y-31521904D02*
X138236228Y-31712380D01*
X138236228Y-31712380D02*
X138712419Y-31902856D01*
X138712419Y-31902856D02*
X138045752Y-32093332D01*
X138712419Y-32902856D02*
X138188609Y-32902856D01*
X138188609Y-32902856D02*
X138093371Y-32855237D01*
X138093371Y-32855237D02*
X138045752Y-32759999D01*
X138045752Y-32759999D02*
X138045752Y-32569523D01*
X138045752Y-32569523D02*
X138093371Y-32474285D01*
X138664800Y-32902856D02*
X138712419Y-32807618D01*
X138712419Y-32807618D02*
X138712419Y-32569523D01*
X138712419Y-32569523D02*
X138664800Y-32474285D01*
X138664800Y-32474285D02*
X138569561Y-32426666D01*
X138569561Y-32426666D02*
X138474323Y-32426666D01*
X138474323Y-32426666D02*
X138379085Y-32474285D01*
X138379085Y-32474285D02*
X138331466Y-32569523D01*
X138331466Y-32569523D02*
X138331466Y-32807618D01*
X138331466Y-32807618D02*
X138283847Y-32902856D01*
X138712419Y-33379047D02*
X138045752Y-33379047D01*
X138236228Y-33379047D02*
X138140990Y-33426666D01*
X138140990Y-33426666D02*
X138093371Y-33474285D01*
X138093371Y-33474285D02*
X138045752Y-33569523D01*
X138045752Y-33569523D02*
X138045752Y-33664761D01*
X138712419Y-34426666D02*
X137712419Y-34426666D01*
X138664800Y-34426666D02*
X138712419Y-34331428D01*
X138712419Y-34331428D02*
X138712419Y-34140952D01*
X138712419Y-34140952D02*
X138664800Y-34045714D01*
X138664800Y-34045714D02*
X138617180Y-33998095D01*
X138617180Y-33998095D02*
X138521942Y-33950476D01*
X138521942Y-33950476D02*
X138236228Y-33950476D01*
X138236228Y-33950476D02*
X138140990Y-33998095D01*
X138140990Y-33998095D02*
X138093371Y-34045714D01*
X138093371Y-34045714D02*
X138045752Y-34140952D01*
X138045752Y-34140952D02*
X138045752Y-34331428D01*
X138045752Y-34331428D02*
X138093371Y-34426666D01*
X138664800Y-34855238D02*
X138712419Y-34950476D01*
X138712419Y-34950476D02*
X138712419Y-35140952D01*
X138712419Y-35140952D02*
X138664800Y-35236190D01*
X138664800Y-35236190D02*
X138569561Y-35283809D01*
X138569561Y-35283809D02*
X138521942Y-35283809D01*
X138521942Y-35283809D02*
X138426704Y-35236190D01*
X138426704Y-35236190D02*
X138379085Y-35140952D01*
X138379085Y-35140952D02*
X138379085Y-34998095D01*
X138379085Y-34998095D02*
X138331466Y-34902857D01*
X138331466Y-34902857D02*
X138236228Y-34855238D01*
X138236228Y-34855238D02*
X138188609Y-34855238D01*
X138188609Y-34855238D02*
X138093371Y-34902857D01*
X138093371Y-34902857D02*
X138045752Y-34998095D01*
X138045752Y-34998095D02*
X138045752Y-35140952D01*
X138045752Y-35140952D02*
X138093371Y-35236190D01*
X138045752Y-36379048D02*
X138712419Y-36617143D01*
X138045752Y-36855238D02*
X138712419Y-36617143D01*
X138712419Y-36617143D02*
X138950514Y-36521905D01*
X138950514Y-36521905D02*
X138998133Y-36474286D01*
X138998133Y-36474286D02*
X139045752Y-36379048D01*
X138712419Y-37379048D02*
X138664800Y-37283810D01*
X138664800Y-37283810D02*
X138617180Y-37236191D01*
X138617180Y-37236191D02*
X138521942Y-37188572D01*
X138521942Y-37188572D02*
X138236228Y-37188572D01*
X138236228Y-37188572D02*
X138140990Y-37236191D01*
X138140990Y-37236191D02*
X138093371Y-37283810D01*
X138093371Y-37283810D02*
X138045752Y-37379048D01*
X138045752Y-37379048D02*
X138045752Y-37521905D01*
X138045752Y-37521905D02*
X138093371Y-37617143D01*
X138093371Y-37617143D02*
X138140990Y-37664762D01*
X138140990Y-37664762D02*
X138236228Y-37712381D01*
X138236228Y-37712381D02*
X138521942Y-37712381D01*
X138521942Y-37712381D02*
X138617180Y-37664762D01*
X138617180Y-37664762D02*
X138664800Y-37617143D01*
X138664800Y-37617143D02*
X138712419Y-37521905D01*
X138712419Y-37521905D02*
X138712419Y-37379048D01*
X138045752Y-38569524D02*
X138712419Y-38569524D01*
X138045752Y-38140953D02*
X138569561Y-38140953D01*
X138569561Y-38140953D02*
X138664800Y-38188572D01*
X138664800Y-38188572D02*
X138712419Y-38283810D01*
X138712419Y-38283810D02*
X138712419Y-38426667D01*
X138712419Y-38426667D02*
X138664800Y-38521905D01*
X138664800Y-38521905D02*
X138617180Y-38569524D01*
X157223258Y-28602419D02*
X157318496Y-28554800D01*
X157318496Y-28554800D02*
X157366115Y-28507180D01*
X157366115Y-28507180D02*
X157413734Y-28411942D01*
X157413734Y-28411942D02*
X157413734Y-28126228D01*
X157413734Y-28126228D02*
X157366115Y-28030990D01*
X157366115Y-28030990D02*
X157318496Y-27983371D01*
X157318496Y-27983371D02*
X157223258Y-27935752D01*
X157223258Y-27935752D02*
X157080401Y-27935752D01*
X157080401Y-27935752D02*
X156985163Y-27983371D01*
X156985163Y-27983371D02*
X156937544Y-28030990D01*
X156937544Y-28030990D02*
X156889925Y-28126228D01*
X156889925Y-28126228D02*
X156889925Y-28411942D01*
X156889925Y-28411942D02*
X156937544Y-28507180D01*
X156937544Y-28507180D02*
X156985163Y-28554800D01*
X156985163Y-28554800D02*
X157080401Y-28602419D01*
X157080401Y-28602419D02*
X157223258Y-28602419D01*
X156604210Y-27935752D02*
X156223258Y-27935752D01*
X156461353Y-28602419D02*
X156461353Y-27745276D01*
X156461353Y-27745276D02*
X156413734Y-27650038D01*
X156413734Y-27650038D02*
X156318496Y-27602419D01*
X156318496Y-27602419D02*
X156223258Y-27602419D01*
X156032781Y-27935752D02*
X155651829Y-27935752D01*
X155889924Y-28602419D02*
X155889924Y-27745276D01*
X155889924Y-27745276D02*
X155842305Y-27650038D01*
X155842305Y-27650038D02*
X155747067Y-27602419D01*
X155747067Y-27602419D02*
X155651829Y-27602419D01*
X168443258Y-28562419D02*
X168538496Y-28514800D01*
X168538496Y-28514800D02*
X168586115Y-28467180D01*
X168586115Y-28467180D02*
X168633734Y-28371942D01*
X168633734Y-28371942D02*
X168633734Y-28086228D01*
X168633734Y-28086228D02*
X168586115Y-27990990D01*
X168586115Y-27990990D02*
X168538496Y-27943371D01*
X168538496Y-27943371D02*
X168443258Y-27895752D01*
X168443258Y-27895752D02*
X168300401Y-27895752D01*
X168300401Y-27895752D02*
X168205163Y-27943371D01*
X168205163Y-27943371D02*
X168157544Y-27990990D01*
X168157544Y-27990990D02*
X168109925Y-28086228D01*
X168109925Y-28086228D02*
X168109925Y-28371942D01*
X168109925Y-28371942D02*
X168157544Y-28467180D01*
X168157544Y-28467180D02*
X168205163Y-28514800D01*
X168205163Y-28514800D02*
X168300401Y-28562419D01*
X168300401Y-28562419D02*
X168443258Y-28562419D01*
X167681353Y-27895752D02*
X167681353Y-28562419D01*
X167681353Y-27990990D02*
X167633734Y-27943371D01*
X167633734Y-27943371D02*
X167538496Y-27895752D01*
X167538496Y-27895752D02*
X167395639Y-27895752D01*
X167395639Y-27895752D02*
X167300401Y-27943371D01*
X167300401Y-27943371D02*
X167252782Y-28038609D01*
X167252782Y-28038609D02*
X167252782Y-28562419D01*
X117582419Y-31153884D02*
X118391942Y-31153884D01*
X118391942Y-31153884D02*
X118487180Y-31201503D01*
X118487180Y-31201503D02*
X118534800Y-31249122D01*
X118534800Y-31249122D02*
X118582419Y-31344360D01*
X118582419Y-31344360D02*
X118582419Y-31534836D01*
X118582419Y-31534836D02*
X118534800Y-31630074D01*
X118534800Y-31630074D02*
X118487180Y-31677693D01*
X118487180Y-31677693D02*
X118391942Y-31725312D01*
X118391942Y-31725312D02*
X117582419Y-31725312D01*
X118534800Y-32153884D02*
X118582419Y-32296741D01*
X118582419Y-32296741D02*
X118582419Y-32534836D01*
X118582419Y-32534836D02*
X118534800Y-32630074D01*
X118534800Y-32630074D02*
X118487180Y-32677693D01*
X118487180Y-32677693D02*
X118391942Y-32725312D01*
X118391942Y-32725312D02*
X118296704Y-32725312D01*
X118296704Y-32725312D02*
X118201466Y-32677693D01*
X118201466Y-32677693D02*
X118153847Y-32630074D01*
X118153847Y-32630074D02*
X118106228Y-32534836D01*
X118106228Y-32534836D02*
X118058609Y-32344360D01*
X118058609Y-32344360D02*
X118010990Y-32249122D01*
X118010990Y-32249122D02*
X117963371Y-32201503D01*
X117963371Y-32201503D02*
X117868133Y-32153884D01*
X117868133Y-32153884D02*
X117772895Y-32153884D01*
X117772895Y-32153884D02*
X117677657Y-32201503D01*
X117677657Y-32201503D02*
X117630038Y-32249122D01*
X117630038Y-32249122D02*
X117582419Y-32344360D01*
X117582419Y-32344360D02*
X117582419Y-32582455D01*
X117582419Y-32582455D02*
X117630038Y-32725312D01*
X118058609Y-33487217D02*
X118106228Y-33630074D01*
X118106228Y-33630074D02*
X118153847Y-33677693D01*
X118153847Y-33677693D02*
X118249085Y-33725312D01*
X118249085Y-33725312D02*
X118391942Y-33725312D01*
X118391942Y-33725312D02*
X118487180Y-33677693D01*
X118487180Y-33677693D02*
X118534800Y-33630074D01*
X118534800Y-33630074D02*
X118582419Y-33534836D01*
X118582419Y-33534836D02*
X118582419Y-33153884D01*
X118582419Y-33153884D02*
X117582419Y-33153884D01*
X117582419Y-33153884D02*
X117582419Y-33487217D01*
X117582419Y-33487217D02*
X117630038Y-33582455D01*
X117630038Y-33582455D02*
X117677657Y-33630074D01*
X117677657Y-33630074D02*
X117772895Y-33677693D01*
X117772895Y-33677693D02*
X117868133Y-33677693D01*
X117868133Y-33677693D02*
X117963371Y-33630074D01*
X117963371Y-33630074D02*
X118010990Y-33582455D01*
X118010990Y-33582455D02*
X118058609Y-33487217D01*
X118058609Y-33487217D02*
X118058609Y-33153884D01*
X118582419Y-34915789D02*
X117582419Y-34915789D01*
X118582419Y-35344360D02*
X118058609Y-35344360D01*
X118058609Y-35344360D02*
X117963371Y-35296741D01*
X117963371Y-35296741D02*
X117915752Y-35201503D01*
X117915752Y-35201503D02*
X117915752Y-35058646D01*
X117915752Y-35058646D02*
X117963371Y-34963408D01*
X117963371Y-34963408D02*
X118010990Y-34915789D01*
X118534800Y-36201503D02*
X118582419Y-36106265D01*
X118582419Y-36106265D02*
X118582419Y-35915789D01*
X118582419Y-35915789D02*
X118534800Y-35820551D01*
X118534800Y-35820551D02*
X118439561Y-35772932D01*
X118439561Y-35772932D02*
X118058609Y-35772932D01*
X118058609Y-35772932D02*
X117963371Y-35820551D01*
X117963371Y-35820551D02*
X117915752Y-35915789D01*
X117915752Y-35915789D02*
X117915752Y-36106265D01*
X117915752Y-36106265D02*
X117963371Y-36201503D01*
X117963371Y-36201503D02*
X118058609Y-36249122D01*
X118058609Y-36249122D02*
X118153847Y-36249122D01*
X118153847Y-36249122D02*
X118249085Y-35772932D01*
X118582419Y-36677694D02*
X117915752Y-36677694D01*
X118106228Y-36677694D02*
X118010990Y-36725313D01*
X118010990Y-36725313D02*
X117963371Y-36772932D01*
X117963371Y-36772932D02*
X117915752Y-36868170D01*
X117915752Y-36868170D02*
X117915752Y-36963408D01*
X118534800Y-37677694D02*
X118582419Y-37582456D01*
X118582419Y-37582456D02*
X118582419Y-37391980D01*
X118582419Y-37391980D02*
X118534800Y-37296742D01*
X118534800Y-37296742D02*
X118439561Y-37249123D01*
X118439561Y-37249123D02*
X118058609Y-37249123D01*
X118058609Y-37249123D02*
X117963371Y-37296742D01*
X117963371Y-37296742D02*
X117915752Y-37391980D01*
X117915752Y-37391980D02*
X117915752Y-37582456D01*
X117915752Y-37582456D02*
X117963371Y-37677694D01*
X117963371Y-37677694D02*
X118058609Y-37725313D01*
X118058609Y-37725313D02*
X118153847Y-37725313D01*
X118153847Y-37725313D02*
X118249085Y-37249123D01*
D11*
X175753220Y-44019819D02*
X175753220Y-43353152D01*
X175753220Y-43543628D02*
X175705601Y-43448390D01*
X175705601Y-43448390D02*
X175657982Y-43400771D01*
X175657982Y-43400771D02*
X175562744Y-43353152D01*
X175562744Y-43353152D02*
X175467506Y-43353152D01*
X174753220Y-43972200D02*
X174848458Y-44019819D01*
X174848458Y-44019819D02*
X175038934Y-44019819D01*
X175038934Y-44019819D02*
X175134172Y-43972200D01*
X175134172Y-43972200D02*
X175181791Y-43876961D01*
X175181791Y-43876961D02*
X175181791Y-43496009D01*
X175181791Y-43496009D02*
X175134172Y-43400771D01*
X175134172Y-43400771D02*
X175038934Y-43353152D01*
X175038934Y-43353152D02*
X174848458Y-43353152D01*
X174848458Y-43353152D02*
X174753220Y-43400771D01*
X174753220Y-43400771D02*
X174705601Y-43496009D01*
X174705601Y-43496009D02*
X174705601Y-43591247D01*
X174705601Y-43591247D02*
X175181791Y-43686485D01*
X173848458Y-44019819D02*
X173848458Y-43019819D01*
X173848458Y-43972200D02*
X173943696Y-44019819D01*
X173943696Y-44019819D02*
X174134172Y-44019819D01*
X174134172Y-44019819D02*
X174229410Y-43972200D01*
X174229410Y-43972200D02*
X174277029Y-43924580D01*
X174277029Y-43924580D02*
X174324648Y-43829342D01*
X174324648Y-43829342D02*
X174324648Y-43543628D01*
X174324648Y-43543628D02*
X174277029Y-43448390D01*
X174277029Y-43448390D02*
X174229410Y-43400771D01*
X174229410Y-43400771D02*
X174134172Y-43353152D01*
X174134172Y-43353152D02*
X173943696Y-43353152D01*
X173943696Y-43353152D02*
X173848458Y-43400771D01*
X175843220Y-42139819D02*
X175843220Y-41139819D01*
X175843220Y-41520771D02*
X175747982Y-41473152D01*
X175747982Y-41473152D02*
X175557506Y-41473152D01*
X175557506Y-41473152D02*
X175462268Y-41520771D01*
X175462268Y-41520771D02*
X175414649Y-41568390D01*
X175414649Y-41568390D02*
X175367030Y-41663628D01*
X175367030Y-41663628D02*
X175367030Y-41949342D01*
X175367030Y-41949342D02*
X175414649Y-42044580D01*
X175414649Y-42044580D02*
X175462268Y-42092200D01*
X175462268Y-42092200D02*
X175557506Y-42139819D01*
X175557506Y-42139819D02*
X175747982Y-42139819D01*
X175747982Y-42139819D02*
X175843220Y-42092200D01*
X174795601Y-42139819D02*
X174890839Y-42092200D01*
X174890839Y-42092200D02*
X174938458Y-41996961D01*
X174938458Y-41996961D02*
X174938458Y-41139819D01*
X173986077Y-42139819D02*
X173986077Y-41616009D01*
X173986077Y-41616009D02*
X174033696Y-41520771D01*
X174033696Y-41520771D02*
X174128934Y-41473152D01*
X174128934Y-41473152D02*
X174319410Y-41473152D01*
X174319410Y-41473152D02*
X174414648Y-41520771D01*
X173986077Y-42092200D02*
X174081315Y-42139819D01*
X174081315Y-42139819D02*
X174319410Y-42139819D01*
X174319410Y-42139819D02*
X174414648Y-42092200D01*
X174414648Y-42092200D02*
X174462267Y-41996961D01*
X174462267Y-41996961D02*
X174462267Y-41901723D01*
X174462267Y-41901723D02*
X174414648Y-41806485D01*
X174414648Y-41806485D02*
X174319410Y-41758866D01*
X174319410Y-41758866D02*
X174081315Y-41758866D01*
X174081315Y-41758866D02*
X173986077Y-41711247D01*
X173081315Y-42092200D02*
X173176553Y-42139819D01*
X173176553Y-42139819D02*
X173367029Y-42139819D01*
X173367029Y-42139819D02*
X173462267Y-42092200D01*
X173462267Y-42092200D02*
X173509886Y-42044580D01*
X173509886Y-42044580D02*
X173557505Y-41949342D01*
X173557505Y-41949342D02*
X173557505Y-41663628D01*
X173557505Y-41663628D02*
X173509886Y-41568390D01*
X173509886Y-41568390D02*
X173462267Y-41520771D01*
X173462267Y-41520771D02*
X173367029Y-41473152D01*
X173367029Y-41473152D02*
X173176553Y-41473152D01*
X173176553Y-41473152D02*
X173081315Y-41520771D01*
X172652743Y-42139819D02*
X172652743Y-41139819D01*
X172557505Y-41758866D02*
X172271791Y-42139819D01*
X172271791Y-41473152D02*
X172652743Y-41854104D01*
D10*
X201010000Y-85280000D02*
X201010000Y-85680000D01*
X201010000Y-85680000D02*
X200460000Y-85680000D01*
X201010000Y-85680000D02*
X201560000Y-85680000D01*
X201010000Y-85680000D02*
X200610000Y-86280000D01*
X200610000Y-86280000D02*
X201410000Y-86280000D01*
X201010000Y-86280000D02*
X201010000Y-86780000D01*
X201410000Y-86280000D02*
X201010000Y-85680000D01*
X167910000Y-85190000D02*
X167910000Y-85590000D01*
X167910000Y-85590000D02*
X167360000Y-85590000D01*
X167910000Y-85590000D02*
X168460000Y-85590000D01*
X167910000Y-85590000D02*
X167510000Y-86190000D01*
X167510000Y-86190000D02*
X168310000Y-86190000D01*
X167910000Y-86190000D02*
X167910000Y-86690000D01*
X168310000Y-86190000D02*
X167910000Y-85590000D01*
X120410000Y-85172500D02*
X120410000Y-85572500D01*
X120410000Y-85572500D02*
X119860000Y-85572500D01*
X120410000Y-85572500D02*
X120960000Y-85572500D01*
X120410000Y-85572500D02*
X120010000Y-86172500D01*
X120010000Y-86172500D02*
X120810000Y-86172500D01*
X120410000Y-86172500D02*
X120410000Y-86672500D01*
X120810000Y-86172500D02*
X120410000Y-85572500D01*
X86950000Y-85280000D02*
X86950000Y-85680000D01*
X86950000Y-85680000D02*
X86400000Y-85680000D01*
X86950000Y-85680000D02*
X87500000Y-85680000D01*
X86950000Y-85680000D02*
X86550000Y-86280000D01*
X86550000Y-86280000D02*
X87350000Y-86280000D01*
X86950000Y-86280000D02*
X86950000Y-86780000D01*
X87350000Y-86280000D02*
X86950000Y-85680000D01*
X230280000Y-85272500D02*
X230280000Y-85672500D01*
X230280000Y-85672500D02*
X229730000Y-85672500D01*
X230280000Y-85672500D02*
X230830000Y-85672500D01*
X230280000Y-85672500D02*
X229880000Y-86272500D01*
X229880000Y-86272500D02*
X230680000Y-86272500D01*
X230280000Y-86272500D02*
X230280000Y-86772500D01*
X230680000Y-86272500D02*
X230280000Y-85672500D01*
X207660000Y-85280000D02*
X207660000Y-85680000D01*
X207660000Y-85680000D02*
X207110000Y-85680000D01*
X207660000Y-85680000D02*
X208210000Y-85680000D01*
X207660000Y-85680000D02*
X207260000Y-86280000D01*
X207260000Y-86280000D02*
X208060000Y-86280000D01*
X207660000Y-86280000D02*
X207660000Y-86780000D01*
X208060000Y-86280000D02*
X207660000Y-85680000D01*
X70210000Y-85310000D02*
X70210000Y-85710000D01*
X70210000Y-85710000D02*
X69660000Y-85710000D01*
X70210000Y-85710000D02*
X70760000Y-85710000D01*
X70210000Y-85710000D02*
X69810000Y-86310000D01*
X69810000Y-86310000D02*
X70610000Y-86310000D01*
X70210000Y-86310000D02*
X70210000Y-86810000D01*
X70610000Y-86310000D02*
X70210000Y-85710000D01*
X47080000Y-85242500D02*
X47080000Y-85642500D01*
X47080000Y-85642500D02*
X46530000Y-85642500D01*
X47080000Y-85642500D02*
X47630000Y-85642500D01*
X47080000Y-85642500D02*
X46680000Y-86242500D01*
X46680000Y-86242500D02*
X47480000Y-86242500D01*
X47080000Y-86242500D02*
X47080000Y-86742500D01*
X47480000Y-86242500D02*
X47080000Y-85642500D01*
X229280000Y-80537500D02*
X229280000Y-80137500D01*
X229280000Y-80137500D02*
X229830000Y-80137500D01*
X229280000Y-80137500D02*
X228730000Y-80137500D01*
X229280000Y-80137500D02*
X229680000Y-79537500D01*
X229680000Y-79537500D02*
X228880000Y-79537500D01*
X229280000Y-79537500D02*
X229280000Y-79037500D01*
X228880000Y-79537500D02*
X229280000Y-80137500D01*
X223920000Y-80487500D02*
X223920000Y-80087500D01*
X223920000Y-80087500D02*
X224470000Y-80087500D01*
X223920000Y-80087500D02*
X223370000Y-80087500D01*
X223920000Y-80087500D02*
X224320000Y-79487500D01*
X224320000Y-79487500D02*
X223520000Y-79487500D01*
X223920000Y-79487500D02*
X223920000Y-78987500D01*
X223520000Y-79487500D02*
X223920000Y-80087500D01*
X204870000Y-80487500D02*
X204870000Y-80087500D01*
X204870000Y-80087500D02*
X205420000Y-80087500D01*
X204870000Y-80087500D02*
X204320000Y-80087500D01*
X204870000Y-80087500D02*
X205270000Y-79487500D01*
X205270000Y-79487500D02*
X204470000Y-79487500D01*
X204870000Y-79487500D02*
X204870000Y-78987500D01*
X204470000Y-79487500D02*
X204870000Y-80087500D01*
X185820000Y-80487500D02*
X185820000Y-80087500D01*
X185820000Y-80087500D02*
X186370000Y-80087500D01*
X185820000Y-80087500D02*
X185270000Y-80087500D01*
X185820000Y-80087500D02*
X186220000Y-79487500D01*
X186220000Y-79487500D02*
X185420000Y-79487500D01*
X185820000Y-79487500D02*
X185820000Y-78987500D01*
X185420000Y-79487500D02*
X185820000Y-80087500D01*
X166770000Y-80487500D02*
X166770000Y-80087500D01*
X166770000Y-80087500D02*
X167320000Y-80087500D01*
X166770000Y-80087500D02*
X166220000Y-80087500D01*
X166770000Y-80087500D02*
X167170000Y-79487500D01*
X167170000Y-79487500D02*
X166370000Y-79487500D01*
X166770000Y-79487500D02*
X166770000Y-78987500D01*
X166370000Y-79487500D02*
X166770000Y-80087500D01*
X147720000Y-80487500D02*
X147720000Y-80087500D01*
X147720000Y-80087500D02*
X148270000Y-80087500D01*
X147720000Y-80087500D02*
X147170000Y-80087500D01*
X147720000Y-80087500D02*
X148120000Y-79487500D01*
X148120000Y-79487500D02*
X147320000Y-79487500D01*
X147720000Y-79487500D02*
X147720000Y-78987500D01*
X147320000Y-79487500D02*
X147720000Y-80087500D01*
X128670000Y-80487500D02*
X128670000Y-80087500D01*
X128670000Y-80087500D02*
X129220000Y-80087500D01*
X128670000Y-80087500D02*
X128120000Y-80087500D01*
X128670000Y-80087500D02*
X129070000Y-79487500D01*
X129070000Y-79487500D02*
X128270000Y-79487500D01*
X128670000Y-79487500D02*
X128670000Y-78987500D01*
X128270000Y-79487500D02*
X128670000Y-80087500D01*
X109620000Y-80487500D02*
X109620000Y-80087500D01*
X109620000Y-80087500D02*
X110170000Y-80087500D01*
X109620000Y-80087500D02*
X109070000Y-80087500D01*
X109620000Y-80087500D02*
X110020000Y-79487500D01*
X110020000Y-79487500D02*
X109220000Y-79487500D01*
X109620000Y-79487500D02*
X109620000Y-78987500D01*
X109220000Y-79487500D02*
X109620000Y-80087500D01*
X90570000Y-80487500D02*
X90570000Y-80087500D01*
X90570000Y-80087500D02*
X91120000Y-80087500D01*
X90570000Y-80087500D02*
X90020000Y-80087500D01*
X90570000Y-80087500D02*
X90970000Y-79487500D01*
X90970000Y-79487500D02*
X90170000Y-79487500D01*
X90570000Y-79487500D02*
X90570000Y-78987500D01*
X90170000Y-79487500D02*
X90570000Y-80087500D01*
X71520000Y-80487500D02*
X71520000Y-80087500D01*
X71520000Y-80087500D02*
X72070000Y-80087500D01*
X71520000Y-80087500D02*
X70970000Y-80087500D01*
X71520000Y-80087500D02*
X71920000Y-79487500D01*
X71920000Y-79487500D02*
X71120000Y-79487500D01*
X71520000Y-79487500D02*
X71520000Y-78987500D01*
X71120000Y-79487500D02*
X71520000Y-80087500D01*
X52470000Y-80487500D02*
X52470000Y-80087500D01*
X52470000Y-80087500D02*
X53020000Y-80087500D01*
X52470000Y-80087500D02*
X51920000Y-80087500D01*
X52470000Y-80087500D02*
X52870000Y-79487500D01*
X52870000Y-79487500D02*
X52070000Y-79487500D01*
X52470000Y-79487500D02*
X52470000Y-78987500D01*
X52070000Y-79487500D02*
X52470000Y-80087500D01*
X31900000Y-80497500D02*
X31900000Y-80097500D01*
X31900000Y-80097500D02*
X32450000Y-80097500D01*
X31900000Y-80097500D02*
X31350000Y-80097500D01*
X31900000Y-80097500D02*
X32300000Y-79497500D01*
X32300000Y-79497500D02*
X31500000Y-79497500D01*
X31900000Y-79497500D02*
X31900000Y-78997500D01*
X31500000Y-79497500D02*
X31900000Y-80097500D01*
X247890000Y-61497500D02*
X247890000Y-61097500D01*
X247890000Y-61097500D02*
X248440000Y-61097500D01*
X247890000Y-61097500D02*
X247340000Y-61097500D01*
X247890000Y-61097500D02*
X248290000Y-60497500D01*
X248290000Y-60497500D02*
X247490000Y-60497500D01*
X247890000Y-60497500D02*
X247890000Y-59997500D01*
X247490000Y-60497500D02*
X247890000Y-61097500D01*
X225950000Y-61457500D02*
X225950000Y-61057500D01*
X225950000Y-61057500D02*
X226500000Y-61057500D01*
X225950000Y-61057500D02*
X225400000Y-61057500D01*
X225950000Y-61057500D02*
X226350000Y-60457500D01*
X226350000Y-60457500D02*
X225550000Y-60457500D01*
X225950000Y-60457500D02*
X225950000Y-59957500D01*
X225550000Y-60457500D02*
X225950000Y-61057500D01*
X219080000Y-61320000D02*
X219080000Y-60920000D01*
X219080000Y-60920000D02*
X219630000Y-60920000D01*
X219080000Y-60920000D02*
X218530000Y-60920000D01*
X219080000Y-60920000D02*
X219480000Y-60320000D01*
X219480000Y-60320000D02*
X218680000Y-60320000D01*
X219080000Y-60320000D02*
X219080000Y-59820000D01*
X218680000Y-60320000D02*
X219080000Y-60920000D01*
X200030000Y-61320000D02*
X200030000Y-60920000D01*
X200030000Y-60920000D02*
X200580000Y-60920000D01*
X200030000Y-60920000D02*
X199480000Y-60920000D01*
X200030000Y-60920000D02*
X200430000Y-60320000D01*
X200430000Y-60320000D02*
X199630000Y-60320000D01*
X200030000Y-60320000D02*
X200030000Y-59820000D01*
X199630000Y-60320000D02*
X200030000Y-60920000D01*
X180980000Y-61320000D02*
X180980000Y-60920000D01*
X180980000Y-60920000D02*
X181530000Y-60920000D01*
X180980000Y-60920000D02*
X180430000Y-60920000D01*
X180980000Y-60920000D02*
X181380000Y-60320000D01*
X181380000Y-60320000D02*
X180580000Y-60320000D01*
X180980000Y-60320000D02*
X180980000Y-59820000D01*
X180580000Y-60320000D02*
X180980000Y-60920000D01*
X161930000Y-61320000D02*
X161930000Y-60920000D01*
X161930000Y-60920000D02*
X162480000Y-60920000D01*
X161930000Y-60920000D02*
X161380000Y-60920000D01*
X161930000Y-60920000D02*
X162330000Y-60320000D01*
X162330000Y-60320000D02*
X161530000Y-60320000D01*
X161930000Y-60320000D02*
X161930000Y-59820000D01*
X161530000Y-60320000D02*
X161930000Y-60920000D01*
X142880000Y-61320000D02*
X142880000Y-60920000D01*
X142880000Y-60920000D02*
X143430000Y-60920000D01*
X142880000Y-60920000D02*
X142330000Y-60920000D01*
X142880000Y-60920000D02*
X143280000Y-60320000D01*
X143280000Y-60320000D02*
X142480000Y-60320000D01*
X142880000Y-60320000D02*
X142880000Y-59820000D01*
X142480000Y-60320000D02*
X142880000Y-60920000D01*
X123830000Y-61320000D02*
X123830000Y-60920000D01*
X123830000Y-60920000D02*
X124380000Y-60920000D01*
X123830000Y-60920000D02*
X123280000Y-60920000D01*
X123830000Y-60920000D02*
X124230000Y-60320000D01*
X124230000Y-60320000D02*
X123430000Y-60320000D01*
X123830000Y-60320000D02*
X123830000Y-59820000D01*
X123430000Y-60320000D02*
X123830000Y-60920000D01*
X104780000Y-61320000D02*
X104780000Y-60920000D01*
X104780000Y-60920000D02*
X105330000Y-60920000D01*
X104780000Y-60920000D02*
X104230000Y-60920000D01*
X104780000Y-60920000D02*
X105180000Y-60320000D01*
X105180000Y-60320000D02*
X104380000Y-60320000D01*
X104780000Y-60320000D02*
X104780000Y-59820000D01*
X104380000Y-60320000D02*
X104780000Y-60920000D01*
X85730000Y-61320000D02*
X85730000Y-60920000D01*
X85730000Y-60920000D02*
X86280000Y-60920000D01*
X85730000Y-60920000D02*
X85180000Y-60920000D01*
X85730000Y-60920000D02*
X86130000Y-60320000D01*
X86130000Y-60320000D02*
X85330000Y-60320000D01*
X85730000Y-60320000D02*
X85730000Y-59820000D01*
X85330000Y-60320000D02*
X85730000Y-60920000D01*
X66680000Y-61320000D02*
X66680000Y-60920000D01*
X66680000Y-60920000D02*
X67230000Y-60920000D01*
X66680000Y-60920000D02*
X66130000Y-60920000D01*
X66680000Y-60920000D02*
X67080000Y-60320000D01*
X67080000Y-60320000D02*
X66280000Y-60320000D01*
X66680000Y-60320000D02*
X66680000Y-59820000D01*
X66280000Y-60320000D02*
X66680000Y-60920000D01*
X47630000Y-61320000D02*
X47630000Y-60920000D01*
X47630000Y-60920000D02*
X48180000Y-60920000D01*
X47630000Y-60920000D02*
X47080000Y-60920000D01*
X47630000Y-60920000D02*
X48030000Y-60320000D01*
X48030000Y-60320000D02*
X47230000Y-60320000D01*
X47630000Y-60320000D02*
X47630000Y-59820000D01*
X47230000Y-60320000D02*
X47630000Y-60920000D01*
X233270000Y-42420000D02*
X233270000Y-42020000D01*
X233270000Y-42020000D02*
X233820000Y-42020000D01*
X233270000Y-42020000D02*
X232720000Y-42020000D01*
X233270000Y-42020000D02*
X233670000Y-41420000D01*
X233670000Y-41420000D02*
X232870000Y-41420000D01*
X233270000Y-41420000D02*
X233270000Y-40920000D01*
X232870000Y-41420000D02*
X233270000Y-42020000D01*
X224630000Y-42457500D02*
X224630000Y-42057500D01*
X224630000Y-42057500D02*
X225180000Y-42057500D01*
X224630000Y-42057500D02*
X224080000Y-42057500D01*
X224630000Y-42057500D02*
X225030000Y-41457500D01*
X225030000Y-41457500D02*
X224230000Y-41457500D01*
X224630000Y-41457500D02*
X224630000Y-40957500D01*
X224230000Y-41457500D02*
X224630000Y-42057500D01*
X215320000Y-42527500D02*
X215320000Y-42127500D01*
X215320000Y-42127500D02*
X215870000Y-42127500D01*
X215320000Y-42127500D02*
X214770000Y-42127500D01*
X215320000Y-42127500D02*
X215720000Y-41527500D01*
X215720000Y-41527500D02*
X214920000Y-41527500D01*
X215320000Y-41527500D02*
X215320000Y-41027500D01*
X214920000Y-41527500D02*
X215320000Y-42127500D01*
X196250000Y-42457500D02*
X196250000Y-42057500D01*
X196250000Y-42057500D02*
X196800000Y-42057500D01*
X196250000Y-42057500D02*
X195700000Y-42057500D01*
X196250000Y-42057500D02*
X196650000Y-41457500D01*
X196650000Y-41457500D02*
X195850000Y-41457500D01*
X196250000Y-41457500D02*
X196250000Y-40957500D01*
X195850000Y-41457500D02*
X196250000Y-42057500D01*
X157910000Y-42397500D02*
X157910000Y-41997500D01*
X157910000Y-41997500D02*
X158460000Y-41997500D01*
X157910000Y-41997500D02*
X157360000Y-41997500D01*
X157910000Y-41997500D02*
X158310000Y-41397500D01*
X158310000Y-41397500D02*
X157510000Y-41397500D01*
X157910000Y-41397500D02*
X157910000Y-40897500D01*
X157510000Y-41397500D02*
X157910000Y-41997500D01*
X150450000Y-42350000D02*
X150450000Y-41950000D01*
X150450000Y-41950000D02*
X151000000Y-41950000D01*
X150450000Y-41950000D02*
X149900000Y-41950000D01*
X150450000Y-41950000D02*
X150850000Y-41350000D01*
X150850000Y-41350000D02*
X150050000Y-41350000D01*
X150450000Y-41350000D02*
X150450000Y-40850000D01*
X150050000Y-41350000D02*
X150450000Y-41950000D01*
X121410000Y-36017500D02*
X121410000Y-35617500D01*
X121410000Y-35617500D02*
X121960000Y-35617500D01*
X121410000Y-35617500D02*
X120860000Y-35617500D01*
X121410000Y-35617500D02*
X121810000Y-35017500D01*
X121810000Y-35017500D02*
X121010000Y-35017500D01*
X121410000Y-35017500D02*
X121410000Y-34517500D01*
X121010000Y-35017500D02*
X121410000Y-35617500D01*
X106010000Y-42310000D02*
X106010000Y-41910000D01*
X106010000Y-41910000D02*
X106560000Y-41910000D01*
X106010000Y-41910000D02*
X105460000Y-41910000D01*
X106010000Y-41910000D02*
X106410000Y-41310000D01*
X106410000Y-41310000D02*
X105610000Y-41310000D01*
X106010000Y-41310000D02*
X106010000Y-40810000D01*
X105610000Y-41310000D02*
X106010000Y-41910000D01*
X100560000Y-42457500D02*
X100560000Y-42057500D01*
X100560000Y-42057500D02*
X101110000Y-42057500D01*
X100560000Y-42057500D02*
X100010000Y-42057500D01*
X100560000Y-42057500D02*
X100960000Y-41457500D01*
X100960000Y-41457500D02*
X100160000Y-41457500D01*
X100560000Y-41457500D02*
X100560000Y-40957500D01*
X100160000Y-41457500D02*
X100560000Y-42057500D01*
X81510000Y-42457500D02*
X81510000Y-42057500D01*
X81510000Y-42057500D02*
X82060000Y-42057500D01*
X81510000Y-42057500D02*
X80960000Y-42057500D01*
X81510000Y-42057500D02*
X81910000Y-41457500D01*
X81910000Y-41457500D02*
X81110000Y-41457500D01*
X81510000Y-41457500D02*
X81510000Y-40957500D01*
X81110000Y-41457500D02*
X81510000Y-42057500D01*
X62460000Y-42457500D02*
X62460000Y-42057500D01*
X62460000Y-42057500D02*
X63010000Y-42057500D01*
X62460000Y-42057500D02*
X61910000Y-42057500D01*
X62460000Y-42057500D02*
X62860000Y-41457500D01*
X62860000Y-41457500D02*
X62060000Y-41457500D01*
X62460000Y-41457500D02*
X62460000Y-40957500D01*
X62060000Y-41457500D02*
X62460000Y-42057500D01*
X43410000Y-42457500D02*
X43410000Y-42057500D01*
X43410000Y-42057500D02*
X43960000Y-42057500D01*
X43410000Y-42057500D02*
X42860000Y-42057500D01*
X43410000Y-42057500D02*
X43810000Y-41457500D01*
X43810000Y-41457500D02*
X43010000Y-41457500D01*
X43410000Y-41457500D02*
X43410000Y-40957500D01*
X43010000Y-41457500D02*
X43410000Y-42057500D01*
%LPC*%
D12*
X246773750Y-82150000D03*
D13*
X241693750Y-82150000D03*
D12*
X236613750Y-82150000D03*
D14*
X237883750Y-79610000D03*
D15*
X234333750Y-79610000D03*
X247783750Y-77070000D03*
D14*
X244233750Y-77070000D03*
D12*
X246773750Y-91675000D03*
D13*
X241693750Y-91675000D03*
D12*
X236613750Y-91675000D03*
D14*
X237883750Y-89135000D03*
D15*
X234333750Y-89135000D03*
X247783750Y-86595000D03*
D14*
X244233750Y-86595000D03*
D16*
X24355000Y-78020000D03*
D17*
X26895000Y-78020000D03*
D16*
X24345000Y-72630000D03*
D17*
X26885000Y-72630000D03*
D16*
X24365000Y-67230000D03*
D17*
X26905000Y-67230000D03*
D12*
X210420000Y-96437500D03*
D13*
X215500000Y-96437500D03*
D12*
X220580000Y-96437500D03*
D14*
X219310000Y-98977500D03*
D18*
X222860000Y-98977500D03*
X209410000Y-101517500D03*
D14*
X212960000Y-101517500D03*
D12*
X144380000Y-96437500D03*
D13*
X139300000Y-96437500D03*
D12*
X134220000Y-96437500D03*
D14*
X135490000Y-93897500D03*
D15*
X131940000Y-93897500D03*
X145390000Y-91357500D03*
D14*
X141840000Y-91357500D03*
D12*
X58020000Y-96437500D03*
D13*
X63100000Y-96437500D03*
D12*
X68180000Y-96437500D03*
D14*
X66910000Y-98977500D03*
D18*
X70460000Y-98977500D03*
X57010000Y-101517500D03*
D14*
X60560000Y-101517500D03*
D12*
X201530000Y-96437500D03*
D13*
X196450000Y-96437500D03*
D12*
X191370000Y-96437500D03*
D14*
X192640000Y-93897500D03*
D15*
X189090000Y-93897500D03*
X202540000Y-91357500D03*
D14*
X198990000Y-91357500D03*
D12*
X170573750Y-96437500D03*
D13*
X165493750Y-96437500D03*
D12*
X160413750Y-96437500D03*
D14*
X161683750Y-93897500D03*
D15*
X158133750Y-93897500D03*
X171583750Y-91357500D03*
D14*
X168033750Y-91357500D03*
D12*
X122948750Y-96437500D03*
D13*
X117868750Y-96437500D03*
D12*
X112788750Y-96437500D03*
D14*
X114058750Y-93897500D03*
D15*
X110508750Y-93897500D03*
X123958750Y-91357500D03*
D14*
X120408750Y-91357500D03*
D12*
X87230000Y-96437500D03*
D13*
X82150000Y-96437500D03*
D12*
X77070000Y-96437500D03*
D14*
X78340000Y-93897500D03*
D15*
X74790000Y-93897500D03*
X88240000Y-91357500D03*
D14*
X84690000Y-91357500D03*
D12*
X225342500Y-91675000D03*
D13*
X220262500Y-91675000D03*
D12*
X215182500Y-91675000D03*
D14*
X216452500Y-89135000D03*
D15*
X212902500Y-89135000D03*
X226352500Y-86595000D03*
D14*
X222802500Y-86595000D03*
D12*
X63417500Y-91675000D03*
D13*
X58337500Y-91675000D03*
D12*
X53257500Y-91675000D03*
D14*
X54527500Y-89135000D03*
D15*
X50977500Y-89135000D03*
X64427500Y-86595000D03*
D14*
X60877500Y-86595000D03*
D12*
X41986250Y-91675000D03*
D13*
X36906250Y-91675000D03*
D12*
X31826250Y-91675000D03*
D14*
X33096250Y-89135000D03*
D15*
X29546250Y-89135000D03*
X42996250Y-86595000D03*
D14*
X39446250Y-86595000D03*
D12*
X234232500Y-72625000D03*
D13*
X239312500Y-72625000D03*
D12*
X244392500Y-72625000D03*
D14*
X243122500Y-75165000D03*
D18*
X246672500Y-75165000D03*
X233222500Y-77705000D03*
D14*
X236772500Y-77705000D03*
D12*
X210420000Y-72625000D03*
D13*
X215500000Y-72625000D03*
D12*
X220580000Y-72625000D03*
D14*
X219310000Y-75165000D03*
D18*
X222860000Y-75165000D03*
X209410000Y-77705000D03*
D14*
X212960000Y-77705000D03*
D12*
X191370000Y-72625000D03*
D13*
X196450000Y-72625000D03*
D12*
X201530000Y-72625000D03*
D14*
X200260000Y-75165000D03*
D18*
X203810000Y-75165000D03*
X190360000Y-77705000D03*
D14*
X193910000Y-77705000D03*
D12*
X172320000Y-72625000D03*
D13*
X177400000Y-72625000D03*
D12*
X182480000Y-72625000D03*
D14*
X181210000Y-75165000D03*
D18*
X184760000Y-75165000D03*
X171310000Y-77705000D03*
D14*
X174860000Y-77705000D03*
D12*
X153270000Y-72625000D03*
D13*
X158350000Y-72625000D03*
D12*
X163430000Y-72625000D03*
D14*
X162160000Y-75165000D03*
D18*
X165710000Y-75165000D03*
X152260000Y-77705000D03*
D14*
X155810000Y-77705000D03*
D12*
X134220000Y-72625000D03*
D13*
X139300000Y-72625000D03*
D12*
X144380000Y-72625000D03*
D14*
X143110000Y-75165000D03*
D18*
X146660000Y-75165000D03*
X133210000Y-77705000D03*
D14*
X136760000Y-77705000D03*
D12*
X115170000Y-72625000D03*
D13*
X120250000Y-72625000D03*
D12*
X125330000Y-72625000D03*
D14*
X124060000Y-75165000D03*
D18*
X127610000Y-75165000D03*
X114160000Y-77705000D03*
D14*
X117710000Y-77705000D03*
D12*
X96120000Y-72625000D03*
D13*
X101200000Y-72625000D03*
D12*
X106280000Y-72625000D03*
D14*
X105010000Y-75165000D03*
D18*
X108560000Y-75165000D03*
X95110000Y-77705000D03*
D14*
X98660000Y-77705000D03*
D12*
X77070000Y-72625000D03*
D13*
X82150000Y-72625000D03*
D12*
X87230000Y-72625000D03*
D14*
X85960000Y-75165000D03*
D18*
X89510000Y-75165000D03*
X76060000Y-77705000D03*
D14*
X79610000Y-77705000D03*
D12*
X58020000Y-72625000D03*
D13*
X63100000Y-72625000D03*
D12*
X68180000Y-72625000D03*
D14*
X66910000Y-75165000D03*
D18*
X70460000Y-75165000D03*
X57010000Y-77705000D03*
D14*
X60560000Y-77705000D03*
D12*
X36588750Y-72625000D03*
D13*
X41668750Y-72625000D03*
D12*
X46748750Y-72625000D03*
D14*
X45478750Y-75165000D03*
D18*
X49028750Y-75165000D03*
X35578750Y-77705000D03*
D14*
X39128750Y-77705000D03*
D12*
X249155000Y-72625000D03*
D13*
X244075000Y-72625000D03*
D12*
X238995000Y-72625000D03*
D14*
X240265000Y-70085000D03*
D15*
X236715000Y-70085000D03*
X250165000Y-67545000D03*
D14*
X246615000Y-67545000D03*
D12*
X230105000Y-72625000D03*
D13*
X225025000Y-72625000D03*
D12*
X219945000Y-72625000D03*
D14*
X221215000Y-70085000D03*
D15*
X217665000Y-70085000D03*
X231115000Y-67545000D03*
D14*
X227565000Y-67545000D03*
D12*
X211055000Y-72625000D03*
D13*
X205975000Y-72625000D03*
D12*
X200895000Y-72625000D03*
D14*
X202165000Y-70085000D03*
D15*
X198615000Y-70085000D03*
X212065000Y-67545000D03*
D14*
X208515000Y-67545000D03*
D12*
X192005000Y-72625000D03*
D13*
X186925000Y-72625000D03*
D12*
X181845000Y-72625000D03*
D14*
X183115000Y-70085000D03*
D15*
X179565000Y-70085000D03*
X193015000Y-67545000D03*
D14*
X189465000Y-67545000D03*
D12*
X172955000Y-72625000D03*
D13*
X167875000Y-72625000D03*
D12*
X162795000Y-72625000D03*
D14*
X164065000Y-70085000D03*
D15*
X160515000Y-70085000D03*
X173965000Y-67545000D03*
D14*
X170415000Y-67545000D03*
D12*
X153905000Y-72625000D03*
D13*
X148825000Y-72625000D03*
D12*
X143745000Y-72625000D03*
D14*
X145015000Y-70085000D03*
D15*
X141465000Y-70085000D03*
X154915000Y-67545000D03*
D14*
X151365000Y-67545000D03*
D12*
X134855000Y-72625000D03*
D13*
X129775000Y-72625000D03*
D12*
X124695000Y-72625000D03*
D14*
X125965000Y-70085000D03*
D15*
X122415000Y-70085000D03*
X135865000Y-67545000D03*
D14*
X132315000Y-67545000D03*
D12*
X115805000Y-72625000D03*
D13*
X110725000Y-72625000D03*
D12*
X105645000Y-72625000D03*
D14*
X106915000Y-70085000D03*
D15*
X103365000Y-70085000D03*
X116815000Y-67545000D03*
D14*
X113265000Y-67545000D03*
D12*
X96755000Y-72625000D03*
D13*
X91675000Y-72625000D03*
D12*
X86595000Y-72625000D03*
D14*
X87865000Y-70085000D03*
D15*
X84315000Y-70085000D03*
X97765000Y-67545000D03*
D14*
X94215000Y-67545000D03*
D12*
X77705000Y-72625000D03*
D13*
X72625000Y-72625000D03*
D12*
X67545000Y-72625000D03*
D14*
X68815000Y-70085000D03*
D15*
X65265000Y-70085000D03*
X78715000Y-67545000D03*
D14*
X75165000Y-67545000D03*
D12*
X58655000Y-72625000D03*
D13*
X53575000Y-72625000D03*
D12*
X48495000Y-72625000D03*
D14*
X49765000Y-70085000D03*
D15*
X46215000Y-70085000D03*
X59665000Y-67545000D03*
D14*
X56115000Y-67545000D03*
D12*
X39605000Y-72625000D03*
D13*
X34525000Y-72625000D03*
D12*
X29445000Y-72625000D03*
D14*
X30715000Y-70085000D03*
D15*
X27165000Y-70085000D03*
X40615000Y-67545000D03*
D14*
X37065000Y-67545000D03*
D12*
X231851250Y-53575000D03*
D13*
X236931250Y-53575000D03*
D12*
X242011250Y-53575000D03*
D14*
X240741250Y-56115000D03*
D18*
X244291250Y-56115000D03*
X230841250Y-58655000D03*
D14*
X234391250Y-58655000D03*
D12*
X205657500Y-53575000D03*
D13*
X210737500Y-53575000D03*
D12*
X215817500Y-53575000D03*
D14*
X214547500Y-56115000D03*
D18*
X218097500Y-56115000D03*
X204647500Y-58655000D03*
D14*
X208197500Y-58655000D03*
D12*
X186607500Y-53575000D03*
D13*
X191687500Y-53575000D03*
D12*
X196767500Y-53575000D03*
D14*
X195497500Y-56115000D03*
D18*
X199047500Y-56115000D03*
X185597500Y-58655000D03*
D14*
X189147500Y-58655000D03*
D12*
X167557500Y-53575000D03*
D13*
X172637500Y-53575000D03*
D12*
X177717500Y-53575000D03*
D14*
X176447500Y-56115000D03*
D18*
X179997500Y-56115000D03*
X166547500Y-58655000D03*
D14*
X170097500Y-58655000D03*
D12*
X148507500Y-53575000D03*
D13*
X153587500Y-53575000D03*
D12*
X158667500Y-53575000D03*
D14*
X157397500Y-56115000D03*
D18*
X160947500Y-56115000D03*
X147497500Y-58655000D03*
D14*
X151047500Y-58655000D03*
D12*
X129457500Y-53575000D03*
D13*
X134537500Y-53575000D03*
D12*
X139617500Y-53575000D03*
D14*
X138347500Y-56115000D03*
D18*
X141897500Y-56115000D03*
X128447500Y-58655000D03*
D14*
X131997500Y-58655000D03*
D12*
X110407500Y-53575000D03*
D13*
X115487500Y-53575000D03*
D12*
X120567500Y-53575000D03*
D14*
X119297500Y-56115000D03*
D18*
X122847500Y-56115000D03*
X109397500Y-58655000D03*
D14*
X112947500Y-58655000D03*
D12*
X91357500Y-53575000D03*
D13*
X96437500Y-53575000D03*
D12*
X101517500Y-53575000D03*
D14*
X100247500Y-56115000D03*
D18*
X103797500Y-56115000D03*
X90347500Y-58655000D03*
D14*
X93897500Y-58655000D03*
D12*
X72307500Y-53575000D03*
D13*
X77387500Y-53575000D03*
D12*
X82467500Y-53575000D03*
D14*
X81197500Y-56115000D03*
D18*
X84747500Y-56115000D03*
X71297500Y-58655000D03*
D14*
X74847500Y-58655000D03*
D12*
X53257500Y-53575000D03*
D13*
X58337500Y-53575000D03*
D12*
X63417500Y-53575000D03*
D14*
X62147500Y-56115000D03*
D18*
X65697500Y-56115000D03*
X52247500Y-58655000D03*
D14*
X55797500Y-58655000D03*
D12*
X31826250Y-53575000D03*
D13*
X36906250Y-53575000D03*
D12*
X41986250Y-53575000D03*
D14*
X40716250Y-56115000D03*
D18*
X44266250Y-56115000D03*
X30816250Y-58655000D03*
D14*
X34366250Y-58655000D03*
D12*
X249155000Y-53575000D03*
D13*
X244075000Y-53575000D03*
D12*
X238995000Y-53575000D03*
D14*
X240265000Y-51035000D03*
D15*
X236715000Y-51035000D03*
X250165000Y-48495000D03*
D14*
X246615000Y-48495000D03*
D12*
X230105000Y-53575000D03*
D13*
X225025000Y-53575000D03*
D12*
X219945000Y-53575000D03*
D14*
X221215000Y-51035000D03*
D15*
X217665000Y-51035000D03*
X231115000Y-48495000D03*
D14*
X227565000Y-48495000D03*
D12*
X211055000Y-53575000D03*
D13*
X205975000Y-53575000D03*
D12*
X200895000Y-53575000D03*
D14*
X202165000Y-51035000D03*
D15*
X198615000Y-51035000D03*
X212065000Y-48495000D03*
D14*
X208515000Y-48495000D03*
D12*
X192005000Y-53575000D03*
D13*
X186925000Y-53575000D03*
D12*
X181845000Y-53575000D03*
D14*
X183115000Y-51035000D03*
D15*
X179565000Y-51035000D03*
X193015000Y-48495000D03*
D14*
X189465000Y-48495000D03*
D12*
X172955000Y-53575000D03*
D13*
X167875000Y-53575000D03*
D12*
X162795000Y-53575000D03*
D14*
X164065000Y-51035000D03*
D15*
X160515000Y-51035000D03*
X173965000Y-48495000D03*
D14*
X170415000Y-48495000D03*
D12*
X153905000Y-53575000D03*
D13*
X148825000Y-53575000D03*
D12*
X143745000Y-53575000D03*
D14*
X145015000Y-51035000D03*
D15*
X141465000Y-51035000D03*
X154915000Y-48495000D03*
D14*
X151365000Y-48495000D03*
D12*
X134855000Y-53575000D03*
D13*
X129775000Y-53575000D03*
D12*
X124695000Y-53575000D03*
D14*
X125965000Y-51035000D03*
D15*
X122415000Y-51035000D03*
X135865000Y-48495000D03*
D14*
X132315000Y-48495000D03*
D12*
X115805000Y-53575000D03*
D13*
X110725000Y-53575000D03*
D12*
X105645000Y-53575000D03*
D14*
X106915000Y-51035000D03*
D15*
X103365000Y-51035000D03*
X116815000Y-48495000D03*
D14*
X113265000Y-48495000D03*
D12*
X96755000Y-53575000D03*
D13*
X91675000Y-53575000D03*
D12*
X86595000Y-53575000D03*
D14*
X87865000Y-51035000D03*
D15*
X84315000Y-51035000D03*
X97765000Y-48495000D03*
D14*
X94215000Y-48495000D03*
D12*
X77705000Y-53575000D03*
D13*
X72625000Y-53575000D03*
D12*
X67545000Y-53575000D03*
D14*
X68815000Y-51035000D03*
D15*
X65265000Y-51035000D03*
X78715000Y-48495000D03*
D14*
X75165000Y-48495000D03*
D12*
X58655000Y-53575000D03*
D13*
X53575000Y-53575000D03*
D12*
X48495000Y-53575000D03*
D14*
X49765000Y-51035000D03*
D15*
X46215000Y-51035000D03*
X59665000Y-48495000D03*
D14*
X56115000Y-48495000D03*
D12*
X39605000Y-53575000D03*
D13*
X34525000Y-53575000D03*
D12*
X29445000Y-53575000D03*
D14*
X30715000Y-51035000D03*
D15*
X27165000Y-51035000D03*
X40615000Y-48495000D03*
D14*
X37065000Y-48495000D03*
D12*
X238995000Y-34525000D03*
D13*
X244075000Y-34525000D03*
D12*
X249155000Y-34525000D03*
D14*
X247885000Y-37065000D03*
D18*
X251435000Y-37065000D03*
X237985000Y-39605000D03*
D14*
X241535000Y-39605000D03*
D12*
X230105000Y-34525000D03*
D13*
X225025000Y-34525000D03*
D12*
X219945000Y-34525000D03*
D14*
X221215000Y-31985000D03*
D15*
X217665000Y-31985000D03*
X231115000Y-29445000D03*
D14*
X227565000Y-29445000D03*
D12*
X211055000Y-34525000D03*
D13*
X205975000Y-34525000D03*
D12*
X200895000Y-34525000D03*
D14*
X202165000Y-31985000D03*
D15*
X198615000Y-31985000D03*
X212065000Y-29445000D03*
D14*
X208515000Y-29445000D03*
D12*
X192005000Y-34525000D03*
D13*
X186925000Y-34525000D03*
D12*
X181845000Y-34525000D03*
D14*
X183115000Y-31985000D03*
D15*
X179565000Y-31985000D03*
X193015000Y-29445000D03*
D14*
X189465000Y-29445000D03*
D12*
X162795000Y-34525000D03*
D13*
X167875000Y-34525000D03*
D12*
X172955000Y-34525000D03*
D14*
X171685000Y-37065000D03*
D18*
X175235000Y-37065000D03*
X161785000Y-39605000D03*
D14*
X165335000Y-39605000D03*
D12*
X86595000Y-34525000D03*
D13*
X91675000Y-34525000D03*
D12*
X96755000Y-34525000D03*
D14*
X95485000Y-37065000D03*
D18*
X99035000Y-37065000D03*
X85585000Y-39605000D03*
D14*
X89135000Y-39605000D03*
D12*
X67545000Y-34525000D03*
D13*
X72625000Y-34525000D03*
D12*
X77705000Y-34525000D03*
D14*
X76435000Y-37065000D03*
D18*
X79985000Y-37065000D03*
X66535000Y-39605000D03*
D14*
X70085000Y-39605000D03*
D12*
X48495000Y-34525000D03*
D13*
X53575000Y-34525000D03*
D12*
X58655000Y-34525000D03*
D14*
X57385000Y-37065000D03*
D18*
X60935000Y-37065000D03*
X47485000Y-39605000D03*
D14*
X51035000Y-39605000D03*
D12*
X29445000Y-34525000D03*
D13*
X34525000Y-34525000D03*
D12*
X39605000Y-34525000D03*
D14*
X38335000Y-37065000D03*
D18*
X41885000Y-37065000D03*
X28435000Y-39605000D03*
D14*
X31985000Y-39605000D03*
D19*
X208000000Y-98940000D03*
X208000000Y-93940000D03*
D20*
X208000000Y-96440000D03*
D19*
X222500000Y-93940000D03*
X222500000Y-98940000D03*
X203950000Y-98930000D03*
X203950000Y-93930000D03*
D21*
X203950000Y-96430000D03*
D19*
X189450000Y-98930000D03*
X189450000Y-93930000D03*
X89650000Y-93940000D03*
X89650000Y-98940000D03*
D21*
X89650000Y-96440000D03*
D19*
X75150000Y-98940000D03*
X75150000Y-93940000D03*
X55600000Y-93940000D03*
X55600000Y-98940000D03*
D20*
X55600000Y-96440000D03*
D19*
X70100000Y-93940000D03*
X70100000Y-98940000D03*
D22*
X163890000Y-28250000D03*
X160890000Y-28250000D03*
D23*
X160140000Y-30250000D03*
X164640000Y-30250000D03*
X163140000Y-30250000D03*
D24*
X166090000Y-29400000D03*
X166090000Y-27100000D03*
X158690000Y-29400000D03*
X158690000Y-27100000D03*
D25*
X201010000Y-84380000D03*
X201010000Y-87680000D03*
X167910000Y-84290000D03*
X167910000Y-87590000D03*
X120410000Y-84272500D03*
X120410000Y-87572500D03*
X86950000Y-84380000D03*
X86950000Y-87680000D03*
X230280000Y-84372500D03*
X230280000Y-87672500D03*
X207660000Y-84380000D03*
X207660000Y-87680000D03*
X70210000Y-84410000D03*
X70210000Y-87710000D03*
X47080000Y-84342500D03*
X47080000Y-87642500D03*
D26*
X229280000Y-81437500D03*
X229280000Y-78137500D03*
X223920000Y-81387500D03*
X223920000Y-78087500D03*
X204870000Y-81387500D03*
X204870000Y-78087500D03*
X185820000Y-81387500D03*
X185820000Y-78087500D03*
X166770000Y-81387500D03*
X166770000Y-78087500D03*
X147720000Y-81387500D03*
X147720000Y-78087500D03*
X128670000Y-81387500D03*
X128670000Y-78087500D03*
X109620000Y-81387500D03*
X109620000Y-78087500D03*
X90570000Y-81387500D03*
X90570000Y-78087500D03*
X71520000Y-81387500D03*
X71520000Y-78087500D03*
X52470000Y-81387500D03*
X52470000Y-78087500D03*
X31900000Y-81397500D03*
X31900000Y-78097500D03*
X247890000Y-62397500D03*
X247890000Y-59097500D03*
X225950000Y-62357500D03*
X225950000Y-59057500D03*
X219080000Y-62220000D03*
X219080000Y-58920000D03*
X200030000Y-62220000D03*
X200030000Y-58920000D03*
X180980000Y-62220000D03*
X180980000Y-58920000D03*
X161930000Y-62220000D03*
X161930000Y-58920000D03*
X142880000Y-62220000D03*
X142880000Y-58920000D03*
X123830000Y-62220000D03*
X123830000Y-58920000D03*
X104780000Y-62220000D03*
X104780000Y-58920000D03*
X85730000Y-62220000D03*
X85730000Y-58920000D03*
X66680000Y-62220000D03*
X66680000Y-58920000D03*
X47630000Y-62220000D03*
X47630000Y-58920000D03*
X233270000Y-43320000D03*
X233270000Y-40020000D03*
X224630000Y-43357500D03*
X224630000Y-40057500D03*
X215320000Y-43427500D03*
X215320000Y-40127500D03*
X196250000Y-43357500D03*
X196250000Y-40057500D03*
X157910000Y-43297500D03*
X157910000Y-39997500D03*
X150450000Y-43250000D03*
X150450000Y-39950000D03*
X121410000Y-36917500D03*
X121410000Y-33617500D03*
X106010000Y-43210000D03*
X106010000Y-39910000D03*
X100560000Y-43357500D03*
X100560000Y-40057500D03*
X81510000Y-43357500D03*
X81510000Y-40057500D03*
X62460000Y-43357500D03*
X62460000Y-40057500D03*
X43410000Y-43357500D03*
X43410000Y-40057500D03*
D12*
X153905000Y-34525000D03*
D13*
X148825000Y-34525000D03*
D12*
X143745000Y-34525000D03*
X134855000Y-34525000D03*
D13*
X129775000Y-34525000D03*
D12*
X124695000Y-34525000D03*
X105645000Y-34525000D03*
D13*
X110725000Y-34525000D03*
D12*
X115805000Y-34525000D03*
D27*
X234708750Y-70243750D03*
X234708750Y-94056250D03*
D13*
X249948750Y-70243750D03*
X249948750Y-94056250D03*
D28*
X196450000Y-103422500D03*
D13*
X196450000Y-88182500D03*
D28*
X82150000Y-103422500D03*
D13*
X82150000Y-88182500D03*
D28*
X177400000Y-103422500D03*
D13*
X177400000Y-88182500D03*
D28*
X153587500Y-103422500D03*
D13*
X153587500Y-88182500D03*
D28*
X129775000Y-103422500D03*
D13*
X129775000Y-88182500D03*
D28*
X105962500Y-103422500D03*
D13*
X105962500Y-88182500D03*
D29*
X177380000Y-43640000D03*
D30*
X177380000Y-41640000D03*
%LPD*%
M02*
