M48
; DRILL file {KiCad 7.0.11-7.0.11~ubuntu22.04.1} date Sat 29 Jun 2024 22:11:57 CEST
; FORMAT={-:-/ absolute / metric / decimal}
; #@! TF.CreationDate,2024-06-29T22:11:57+02:00
; #@! TF.GenerationSoftware,Kicad,Pcbnew,7.0.11-7.0.11~ubuntu22.04.1
; #@! TF.FileFunction,NonPlated,1,2,NPTH
FMAT,2
METRIC
; #@! TA.AperFunction,NonPlated,NPTH,ComponentDrill
T1C0.850
; #@! TA.AperFunction,NonPlated,NPTH,ComponentDrill
T2C1.750
; #@! TA.AperFunction,NonPlated,NPTH,ComponentDrill
T3C3.048
; #@! TA.AperFunction,NonPlated,NPTH,ComponentDrill
T4C3.988
%
G90
G05
T1
X160.89Y-28.25
X163.89Y-28.25
T2
X29.445Y-34.525
X29.445Y-53.575
X29.445Y-72.625
X31.826Y-53.575
X31.826Y-91.675
X36.589Y-72.625
X39.605Y-34.525
X39.605Y-53.575
X39.605Y-72.625
X41.986Y-53.575
X41.986Y-91.675
X46.749Y-72.625
X48.495Y-34.525
X48.495Y-53.575
X48.495Y-72.625
X53.258Y-53.575
X53.258Y-91.675
X58.02Y-72.625
X58.02Y-96.438
X58.655Y-34.525
X58.655Y-53.575
X58.655Y-72.625
X63.417Y-53.575
X63.417Y-91.675
X67.545Y-34.525
X67.545Y-53.575
X67.545Y-72.625
X68.18Y-72.625
X68.18Y-96.438
X72.307Y-53.575
X77.07Y-72.625
X77.07Y-96.438
X77.705Y-34.525
X77.705Y-53.575
X77.705Y-72.625
X82.468Y-53.575
X86.595Y-34.525
X86.595Y-53.575
X86.595Y-72.625
X87.23Y-72.625
X87.23Y-96.438
X91.358Y-53.575
X96.12Y-72.625
X96.755Y-34.525
X96.755Y-53.575
X96.755Y-72.625
X101.517Y-53.575
X105.645Y-34.525
X105.645Y-53.575
X105.645Y-72.625
X106.28Y-72.625
X110.407Y-53.575
X112.789Y-96.438
X115.17Y-72.625
X115.805Y-34.525
X115.805Y-53.575
X115.805Y-72.625
X120.567Y-53.575
X122.949Y-96.438
X124.695Y-34.525
X124.695Y-53.575
X124.695Y-72.625
X125.33Y-72.625
X129.457Y-53.575
X134.22Y-72.625
X134.22Y-96.438
X134.855Y-34.525
X134.855Y-53.575
X134.855Y-72.625
X139.618Y-53.575
X143.745Y-34.525
X143.745Y-53.575
X143.745Y-72.625
X144.38Y-72.625
X144.38Y-96.438
X148.507Y-53.575
X153.27Y-72.625
X153.905Y-34.525
X153.905Y-53.575
X153.905Y-72.625
X158.667Y-53.575
X160.414Y-96.438
X162.795Y-34.525
X162.795Y-53.575
X162.795Y-72.625
X163.43Y-72.625
X167.558Y-53.575
X170.574Y-96.438
X172.32Y-72.625
X172.955Y-34.525
X172.955Y-53.575
X172.955Y-72.625
X177.718Y-53.575
X181.845Y-34.525
X181.845Y-53.575
X181.845Y-72.625
X182.48Y-72.625
X186.607Y-53.575
X191.37Y-72.625
X191.37Y-96.438
X192.005Y-34.525
X192.005Y-53.575
X192.005Y-72.625
X196.767Y-53.575
X200.895Y-34.525
X200.895Y-53.575
X200.895Y-72.625
X201.53Y-72.625
X201.53Y-96.438
X205.657Y-53.575
X210.42Y-72.625
X210.42Y-96.438
X211.055Y-34.525
X211.055Y-53.575
X211.055Y-72.625
X215.182Y-91.675
X215.817Y-53.575
X219.945Y-34.525
X219.945Y-53.575
X219.945Y-72.625
X220.58Y-72.625
X220.58Y-96.438
X225.343Y-91.675
X230.105Y-34.525
X230.105Y-53.575
X230.105Y-72.625
X231.851Y-53.575
X234.232Y-72.625
X236.614Y-82.15
X236.614Y-91.675
X238.995Y-34.525
X238.995Y-53.575
X238.995Y-72.625
X242.011Y-53.575
X244.392Y-72.625
X246.774Y-82.15
X246.774Y-91.675
X249.155Y-34.525
X249.155Y-53.575
X249.155Y-72.625
T3
X234.709Y-70.244
X234.709Y-94.056
T4
X34.525Y-34.525
X34.525Y-53.575
X34.525Y-72.625
X36.906Y-53.575
X36.906Y-91.675
X41.669Y-72.625
X53.575Y-34.525
X53.575Y-53.575
X53.575Y-72.625
X58.337Y-53.575
X58.337Y-91.675
X63.1Y-72.625
X63.1Y-96.438
X72.625Y-34.525
X72.625Y-53.575
X72.625Y-72.625
X77.388Y-53.575
X82.15Y-72.625
X82.15Y-88.182
X82.15Y-96.438
X91.675Y-34.525
X91.675Y-53.575
X91.675Y-72.625
X96.438Y-53.575
X101.2Y-72.625
X105.962Y-88.182
X110.725Y-34.525
X110.725Y-53.575
X110.725Y-72.625
X115.487Y-53.575
X117.869Y-96.438
X120.25Y-72.625
X129.775Y-34.525
X129.775Y-53.575
X129.775Y-72.625
X129.775Y-88.182
X134.537Y-53.575
X139.3Y-72.625
X139.3Y-96.438
X148.825Y-34.525
X148.825Y-53.575
X148.825Y-72.625
X153.588Y-53.575
X153.588Y-88.182
X158.35Y-72.625
X165.494Y-96.438
X167.875Y-34.525
X167.875Y-53.575
X167.875Y-72.625
X172.637Y-53.575
X177.4Y-72.625
X177.4Y-88.182
X186.925Y-34.525
X186.925Y-53.575
X186.925Y-72.625
X191.688Y-53.575
X196.45Y-72.625
X196.45Y-88.182
X196.45Y-96.438
X205.975Y-34.525
X205.975Y-53.575
X205.975Y-72.625
X210.737Y-53.575
X215.5Y-72.625
X215.5Y-96.438
X220.262Y-91.675
X225.025Y-34.525
X225.025Y-53.575
X225.025Y-72.625
X236.931Y-53.575
X239.312Y-72.625
X241.694Y-82.15
X241.694Y-91.675
X244.075Y-34.525
X244.075Y-53.575
X244.075Y-72.625
X249.949Y-70.244
X249.949Y-94.056
M30
