G04 #@! TF.GenerationSoftware,KiCad,Pcbnew,7.0.11-7.0.11~ubuntu22.04.1*
G04 #@! TF.CreationDate,2024-06-29T22:10:39+02:00*
G04 #@! TF.ProjectId,vorona-pcb,766f726f-6e61-42d7-9063-622e6b696361,rev?*
G04 #@! TF.SameCoordinates,Original*
G04 #@! TF.FileFunction,Paste,Bot*
G04 #@! TF.FilePolarity,Positive*
%FSLAX46Y46*%
G04 Gerber Fmt 4.6, Leading zero omitted, Abs format (unit mm)*
G04 Created by KiCad (PCBNEW 7.0.11-7.0.11~ubuntu22.04.1) date 2024-06-29 22:10:39*
%MOMM*%
%LPD*%
G01*
G04 APERTURE LIST*
G04 Aperture macros list*
%AMRoundRect*
0 Rectangle with rounded corners*
0 $1 Rounding radius*
0 $2 $3 $4 $5 $6 $7 $8 $9 X,Y pos of 4 corners*
0 Add a 4 corners polygon primitive as box body*
4,1,4,$2,$3,$4,$5,$6,$7,$8,$9,$2,$3,0*
0 Add four circle primitives for the rounded corners*
1,1,$1+$1,$2,$3*
1,1,$1+$1,$4,$5*
1,1,$1+$1,$6,$7*
1,1,$1+$1,$8,$9*
0 Add four rect primitives between the rounded corners*
20,1,$1+$1,$2,$3,$4,$5,0*
20,1,$1+$1,$4,$5,$6,$7,0*
20,1,$1+$1,$6,$7,$8,$9,0*
20,1,$1+$1,$8,$9,$2,$3,0*%
G04 Aperture macros list end*
%ADD10RoundRect,0.250000X1.025000X1.000000X-1.025000X1.000000X-1.025000X-1.000000X1.025000X-1.000000X0*%
%ADD11RoundRect,0.250000X-1.025000X-1.000000X1.025000X-1.000000X1.025000X1.000000X-1.025000X1.000000X0*%
%ADD12RoundRect,0.090000X-0.210000X-0.535000X0.210000X-0.535000X0.210000X0.535000X-0.210000X0.535000X0*%
%ADD13RoundRect,0.105000X-0.445000X0.245000X-0.445000X-0.245000X0.445000X-0.245000X0.445000X0.245000X0*%
%ADD14RoundRect,0.225000X-0.375000X0.225000X-0.375000X-0.225000X0.375000X-0.225000X0.375000X0.225000X0*%
%ADD15RoundRect,0.225000X0.375000X-0.225000X0.375000X0.225000X-0.375000X0.225000X-0.375000X-0.225000X0*%
G04 APERTURE END LIST*
D10*
X234333750Y-79610000D03*
X247783750Y-77070000D03*
X234333750Y-89135000D03*
X247783750Y-86595000D03*
D11*
X222860000Y-98977500D03*
X209410000Y-101517500D03*
D10*
X131940000Y-93897500D03*
X145390000Y-91357500D03*
D11*
X70460000Y-98977500D03*
X57010000Y-101517500D03*
D10*
X189090000Y-93897500D03*
X202540000Y-91357500D03*
X158133750Y-93897500D03*
X171583750Y-91357500D03*
X110508750Y-93897500D03*
X123958750Y-91357500D03*
X74790000Y-93897500D03*
X88240000Y-91357500D03*
X212902500Y-89135000D03*
X226352500Y-86595000D03*
X50977500Y-89135000D03*
X64427500Y-86595000D03*
X29546250Y-89135000D03*
X42996250Y-86595000D03*
D11*
X246672500Y-75165000D03*
X233222500Y-77705000D03*
X222860000Y-75165000D03*
X209410000Y-77705000D03*
X203810000Y-75165000D03*
X190360000Y-77705000D03*
X184760000Y-75165000D03*
X171310000Y-77705000D03*
X165710000Y-75165000D03*
X152260000Y-77705000D03*
X146660000Y-75165000D03*
X133210000Y-77705000D03*
X127610000Y-75165000D03*
X114160000Y-77705000D03*
X108560000Y-75165000D03*
X95110000Y-77705000D03*
X89510000Y-75165000D03*
X76060000Y-77705000D03*
X70460000Y-75165000D03*
X57010000Y-77705000D03*
X49028750Y-75165000D03*
X35578750Y-77705000D03*
D10*
X236715000Y-70085000D03*
X250165000Y-67545000D03*
X217665000Y-70085000D03*
X231115000Y-67545000D03*
X198615000Y-70085000D03*
X212065000Y-67545000D03*
X179565000Y-70085000D03*
X193015000Y-67545000D03*
X160515000Y-70085000D03*
X173965000Y-67545000D03*
X141465000Y-70085000D03*
X154915000Y-67545000D03*
X122415000Y-70085000D03*
X135865000Y-67545000D03*
X103365000Y-70085000D03*
X116815000Y-67545000D03*
X84315000Y-70085000D03*
X97765000Y-67545000D03*
X65265000Y-70085000D03*
X78715000Y-67545000D03*
X46215000Y-70085000D03*
X59665000Y-67545000D03*
X27165000Y-70085000D03*
X40615000Y-67545000D03*
D11*
X244291250Y-56115000D03*
X230841250Y-58655000D03*
X218097500Y-56115000D03*
X204647500Y-58655000D03*
X199047500Y-56115000D03*
X185597500Y-58655000D03*
X179997500Y-56115000D03*
X166547500Y-58655000D03*
X160947500Y-56115000D03*
X147497500Y-58655000D03*
X141897500Y-56115000D03*
X128447500Y-58655000D03*
X122847500Y-56115000D03*
X109397500Y-58655000D03*
X103797500Y-56115000D03*
X90347500Y-58655000D03*
X84747500Y-56115000D03*
X71297500Y-58655000D03*
X65697500Y-56115000D03*
X52247500Y-58655000D03*
X44266250Y-56115000D03*
X30816250Y-58655000D03*
D10*
X236715000Y-51035000D03*
X250165000Y-48495000D03*
X217665000Y-51035000D03*
X231115000Y-48495000D03*
X198615000Y-51035000D03*
X212065000Y-48495000D03*
X179565000Y-51035000D03*
X193015000Y-48495000D03*
X160515000Y-51035000D03*
X173965000Y-48495000D03*
X141465000Y-51035000D03*
X154915000Y-48495000D03*
X122415000Y-51035000D03*
X135865000Y-48495000D03*
X103365000Y-51035000D03*
X116815000Y-48495000D03*
X84315000Y-51035000D03*
X97765000Y-48495000D03*
X65265000Y-51035000D03*
X78715000Y-48495000D03*
X46215000Y-51035000D03*
X59665000Y-48495000D03*
X27165000Y-51035000D03*
X40615000Y-48495000D03*
D11*
X251435000Y-37065000D03*
X237985000Y-39605000D03*
D10*
X217665000Y-31985000D03*
X231115000Y-29445000D03*
X198615000Y-31985000D03*
X212065000Y-29445000D03*
X179565000Y-31985000D03*
X193015000Y-29445000D03*
D11*
X175235000Y-37065000D03*
X161785000Y-39605000D03*
X99035000Y-37065000D03*
X85585000Y-39605000D03*
X79985000Y-37065000D03*
X66535000Y-39605000D03*
X60935000Y-37065000D03*
X47485000Y-39605000D03*
X41885000Y-37065000D03*
X28435000Y-39605000D03*
D12*
X160140000Y-30250000D03*
X164640000Y-30250000D03*
X163140000Y-30250000D03*
D13*
X166090000Y-29400000D03*
X166090000Y-27100000D03*
X158690000Y-29400000D03*
X158690000Y-27100000D03*
D14*
X201010000Y-84380000D03*
X201010000Y-87680000D03*
X167910000Y-84290000D03*
X167910000Y-87590000D03*
X120410000Y-84272500D03*
X120410000Y-87572500D03*
X86950000Y-84380000D03*
X86950000Y-87680000D03*
X230280000Y-84372500D03*
X230280000Y-87672500D03*
X207660000Y-84380000D03*
X207660000Y-87680000D03*
X70210000Y-84410000D03*
X70210000Y-87710000D03*
X47080000Y-84342500D03*
X47080000Y-87642500D03*
D15*
X229280000Y-81437500D03*
X229280000Y-78137500D03*
X223920000Y-81387500D03*
X223920000Y-78087500D03*
X204870000Y-81387500D03*
X204870000Y-78087500D03*
X185820000Y-81387500D03*
X185820000Y-78087500D03*
X166770000Y-81387500D03*
X166770000Y-78087500D03*
X147720000Y-81387500D03*
X147720000Y-78087500D03*
X128670000Y-81387500D03*
X128670000Y-78087500D03*
X109620000Y-81387500D03*
X109620000Y-78087500D03*
X90570000Y-81387500D03*
X90570000Y-78087500D03*
X71520000Y-81387500D03*
X71520000Y-78087500D03*
X52470000Y-81387500D03*
X52470000Y-78087500D03*
X31900000Y-81397500D03*
X31900000Y-78097500D03*
X247890000Y-62397500D03*
X247890000Y-59097500D03*
X225950000Y-62357500D03*
X225950000Y-59057500D03*
X219080000Y-62220000D03*
X219080000Y-58920000D03*
X200030000Y-62220000D03*
X200030000Y-58920000D03*
X180980000Y-62220000D03*
X180980000Y-58920000D03*
X161930000Y-62220000D03*
X161930000Y-58920000D03*
X142880000Y-62220000D03*
X142880000Y-58920000D03*
X123830000Y-62220000D03*
X123830000Y-58920000D03*
X104780000Y-62220000D03*
X104780000Y-58920000D03*
X85730000Y-62220000D03*
X85730000Y-58920000D03*
X66680000Y-62220000D03*
X66680000Y-58920000D03*
X47630000Y-62220000D03*
X47630000Y-58920000D03*
X233270000Y-43320000D03*
X233270000Y-40020000D03*
X224630000Y-43357500D03*
X224630000Y-40057500D03*
X215320000Y-43427500D03*
X215320000Y-40127500D03*
X196250000Y-43357500D03*
X196250000Y-40057500D03*
X157910000Y-43297500D03*
X157910000Y-39997500D03*
X150450000Y-43250000D03*
X150450000Y-39950000D03*
X121410000Y-36917500D03*
X121410000Y-33617500D03*
X106010000Y-43210000D03*
X106010000Y-39910000D03*
X100560000Y-43357500D03*
X100560000Y-40057500D03*
X81510000Y-43357500D03*
X81510000Y-40057500D03*
X62460000Y-43357500D03*
X62460000Y-40057500D03*
X43410000Y-43357500D03*
X43410000Y-40057500D03*
M02*
