G04 #@! TF.GenerationSoftware,KiCad,Pcbnew,7.0.11-7.0.11~ubuntu22.04.1*
G04 #@! TF.CreationDate,2024-06-29T22:10:39+02:00*
G04 #@! TF.ProjectId,vorona-pcb,766f726f-6e61-42d7-9063-622e6b696361,rev?*
G04 #@! TF.SameCoordinates,Original*
G04 #@! TF.FileFunction,Soldermask,Bot*
G04 #@! TF.FilePolarity,Negative*
%FSLAX46Y46*%
G04 Gerber Fmt 4.6, Leading zero omitted, Abs format (unit mm)*
G04 Created by KiCad (PCBNEW 7.0.11-7.0.11~ubuntu22.04.1) date 2024-06-29 22:10:39*
%MOMM*%
%LPD*%
G01*
G04 APERTURE LIST*
G04 Aperture macros list*
%AMRoundRect*
0 Rectangle with rounded corners*
0 $1 Rounding radius*
0 $2 $3 $4 $5 $6 $7 $8 $9 X,Y pos of 4 corners*
0 Add a 4 corners polygon primitive as box body*
4,1,4,$2,$3,$4,$5,$6,$7,$8,$9,$2,$3,0*
0 Add four circle primitives for the rounded corners*
1,1,$1+$1,$2,$3*
1,1,$1+$1,$4,$5*
1,1,$1+$1,$6,$7*
1,1,$1+$1,$8,$9*
0 Add four rect primitives between the rounded corners*
20,1,$1+$1,$2,$3,$4,$5,0*
20,1,$1+$1,$4,$5,$6,$7,0*
20,1,$1+$1,$6,$7,$8,$9,0*
20,1,$1+$1,$8,$9,$2,$3,0*%
G04 Aperture macros list end*
%ADD10C,1.750000*%
%ADD11C,3.987800*%
%ADD12C,3.300000*%
%ADD13RoundRect,0.250000X1.025000X1.000000X-1.025000X1.000000X-1.025000X-1.000000X1.025000X-1.000000X0*%
%ADD14R,1.800000X1.800000*%
%ADD15C,1.800000*%
%ADD16RoundRect,0.250000X-1.025000X-1.000000X1.025000X-1.000000X1.025000X1.000000X-1.025000X1.000000X0*%
%ADD17C,2.000000*%
%ADD18RoundRect,0.500000X-0.500000X-0.500000X0.500000X-0.500000X0.500000X0.500000X-0.500000X0.500000X0*%
%ADD19RoundRect,0.500000X0.500000X0.500000X-0.500000X0.500000X-0.500000X-0.500000X0.500000X-0.500000X0*%
%ADD20C,0.850000*%
%ADD21RoundRect,0.090000X-0.210000X-0.535000X0.210000X-0.535000X0.210000X0.535000X-0.210000X0.535000X0*%
%ADD22RoundRect,0.105000X-0.445000X0.245000X-0.445000X-0.245000X0.445000X-0.245000X0.445000X0.245000X0*%
%ADD23RoundRect,0.225000X-0.375000X0.225000X-0.375000X-0.225000X0.375000X-0.225000X0.375000X0.225000X0*%
%ADD24RoundRect,0.225000X0.375000X-0.225000X0.375000X0.225000X-0.375000X0.225000X-0.375000X-0.225000X0*%
%ADD25C,3.048000*%
%ADD26C,4.000000*%
%ADD27O,1.750000X1.200000*%
%ADD28RoundRect,0.250000X-0.625000X0.350000X-0.625000X-0.350000X0.625000X-0.350000X0.625000X0.350000X0*%
G04 APERTURE END LIST*
D10*
X246773750Y-82150000D03*
D11*
X241693750Y-82150000D03*
D10*
X236613750Y-82150000D03*
D12*
X237883750Y-79610000D03*
D13*
X234333750Y-79610000D03*
X247783750Y-77070000D03*
D12*
X244233750Y-77070000D03*
D10*
X246773750Y-91675000D03*
D11*
X241693750Y-91675000D03*
D10*
X236613750Y-91675000D03*
D12*
X237883750Y-89135000D03*
D13*
X234333750Y-89135000D03*
X247783750Y-86595000D03*
D12*
X244233750Y-86595000D03*
D14*
X24355000Y-78020000D03*
D15*
X26895000Y-78020000D03*
D14*
X24345000Y-72630000D03*
D15*
X26885000Y-72630000D03*
D14*
X24365000Y-67230000D03*
D15*
X26905000Y-67230000D03*
D10*
X210420000Y-96437500D03*
D11*
X215500000Y-96437500D03*
D10*
X220580000Y-96437500D03*
D12*
X219310000Y-98977500D03*
D16*
X222860000Y-98977500D03*
X209410000Y-101517500D03*
D12*
X212960000Y-101517500D03*
D10*
X144380000Y-96437500D03*
D11*
X139300000Y-96437500D03*
D10*
X134220000Y-96437500D03*
D12*
X135490000Y-93897500D03*
D13*
X131940000Y-93897500D03*
X145390000Y-91357500D03*
D12*
X141840000Y-91357500D03*
D10*
X58020000Y-96437500D03*
D11*
X63100000Y-96437500D03*
D10*
X68180000Y-96437500D03*
D12*
X66910000Y-98977500D03*
D16*
X70460000Y-98977500D03*
X57010000Y-101517500D03*
D12*
X60560000Y-101517500D03*
D10*
X201530000Y-96437500D03*
D11*
X196450000Y-96437500D03*
D10*
X191370000Y-96437500D03*
D12*
X192640000Y-93897500D03*
D13*
X189090000Y-93897500D03*
X202540000Y-91357500D03*
D12*
X198990000Y-91357500D03*
D10*
X170573750Y-96437500D03*
D11*
X165493750Y-96437500D03*
D10*
X160413750Y-96437500D03*
D12*
X161683750Y-93897500D03*
D13*
X158133750Y-93897500D03*
X171583750Y-91357500D03*
D12*
X168033750Y-91357500D03*
D10*
X122948750Y-96437500D03*
D11*
X117868750Y-96437500D03*
D10*
X112788750Y-96437500D03*
D12*
X114058750Y-93897500D03*
D13*
X110508750Y-93897500D03*
X123958750Y-91357500D03*
D12*
X120408750Y-91357500D03*
D10*
X87230000Y-96437500D03*
D11*
X82150000Y-96437500D03*
D10*
X77070000Y-96437500D03*
D12*
X78340000Y-93897500D03*
D13*
X74790000Y-93897500D03*
X88240000Y-91357500D03*
D12*
X84690000Y-91357500D03*
D10*
X225342500Y-91675000D03*
D11*
X220262500Y-91675000D03*
D10*
X215182500Y-91675000D03*
D12*
X216452500Y-89135000D03*
D13*
X212902500Y-89135000D03*
X226352500Y-86595000D03*
D12*
X222802500Y-86595000D03*
D10*
X63417500Y-91675000D03*
D11*
X58337500Y-91675000D03*
D10*
X53257500Y-91675000D03*
D12*
X54527500Y-89135000D03*
D13*
X50977500Y-89135000D03*
X64427500Y-86595000D03*
D12*
X60877500Y-86595000D03*
D10*
X41986250Y-91675000D03*
D11*
X36906250Y-91675000D03*
D10*
X31826250Y-91675000D03*
D12*
X33096250Y-89135000D03*
D13*
X29546250Y-89135000D03*
X42996250Y-86595000D03*
D12*
X39446250Y-86595000D03*
D10*
X234232500Y-72625000D03*
D11*
X239312500Y-72625000D03*
D10*
X244392500Y-72625000D03*
D12*
X243122500Y-75165000D03*
D16*
X246672500Y-75165000D03*
X233222500Y-77705000D03*
D12*
X236772500Y-77705000D03*
D10*
X210420000Y-72625000D03*
D11*
X215500000Y-72625000D03*
D10*
X220580000Y-72625000D03*
D12*
X219310000Y-75165000D03*
D16*
X222860000Y-75165000D03*
X209410000Y-77705000D03*
D12*
X212960000Y-77705000D03*
D10*
X191370000Y-72625000D03*
D11*
X196450000Y-72625000D03*
D10*
X201530000Y-72625000D03*
D12*
X200260000Y-75165000D03*
D16*
X203810000Y-75165000D03*
X190360000Y-77705000D03*
D12*
X193910000Y-77705000D03*
D10*
X172320000Y-72625000D03*
D11*
X177400000Y-72625000D03*
D10*
X182480000Y-72625000D03*
D12*
X181210000Y-75165000D03*
D16*
X184760000Y-75165000D03*
X171310000Y-77705000D03*
D12*
X174860000Y-77705000D03*
D10*
X153270000Y-72625000D03*
D11*
X158350000Y-72625000D03*
D10*
X163430000Y-72625000D03*
D12*
X162160000Y-75165000D03*
D16*
X165710000Y-75165000D03*
X152260000Y-77705000D03*
D12*
X155810000Y-77705000D03*
D10*
X134220000Y-72625000D03*
D11*
X139300000Y-72625000D03*
D10*
X144380000Y-72625000D03*
D12*
X143110000Y-75165000D03*
D16*
X146660000Y-75165000D03*
X133210000Y-77705000D03*
D12*
X136760000Y-77705000D03*
D10*
X115170000Y-72625000D03*
D11*
X120250000Y-72625000D03*
D10*
X125330000Y-72625000D03*
D12*
X124060000Y-75165000D03*
D16*
X127610000Y-75165000D03*
X114160000Y-77705000D03*
D12*
X117710000Y-77705000D03*
D10*
X96120000Y-72625000D03*
D11*
X101200000Y-72625000D03*
D10*
X106280000Y-72625000D03*
D12*
X105010000Y-75165000D03*
D16*
X108560000Y-75165000D03*
X95110000Y-77705000D03*
D12*
X98660000Y-77705000D03*
D10*
X77070000Y-72625000D03*
D11*
X82150000Y-72625000D03*
D10*
X87230000Y-72625000D03*
D12*
X85960000Y-75165000D03*
D16*
X89510000Y-75165000D03*
X76060000Y-77705000D03*
D12*
X79610000Y-77705000D03*
D10*
X58020000Y-72625000D03*
D11*
X63100000Y-72625000D03*
D10*
X68180000Y-72625000D03*
D12*
X66910000Y-75165000D03*
D16*
X70460000Y-75165000D03*
X57010000Y-77705000D03*
D12*
X60560000Y-77705000D03*
D10*
X36588750Y-72625000D03*
D11*
X41668750Y-72625000D03*
D10*
X46748750Y-72625000D03*
D12*
X45478750Y-75165000D03*
D16*
X49028750Y-75165000D03*
X35578750Y-77705000D03*
D12*
X39128750Y-77705000D03*
D10*
X249155000Y-72625000D03*
D11*
X244075000Y-72625000D03*
D10*
X238995000Y-72625000D03*
D12*
X240265000Y-70085000D03*
D13*
X236715000Y-70085000D03*
X250165000Y-67545000D03*
D12*
X246615000Y-67545000D03*
D10*
X230105000Y-72625000D03*
D11*
X225025000Y-72625000D03*
D10*
X219945000Y-72625000D03*
D12*
X221215000Y-70085000D03*
D13*
X217665000Y-70085000D03*
X231115000Y-67545000D03*
D12*
X227565000Y-67545000D03*
D10*
X211055000Y-72625000D03*
D11*
X205975000Y-72625000D03*
D10*
X200895000Y-72625000D03*
D12*
X202165000Y-70085000D03*
D13*
X198615000Y-70085000D03*
X212065000Y-67545000D03*
D12*
X208515000Y-67545000D03*
D10*
X192005000Y-72625000D03*
D11*
X186925000Y-72625000D03*
D10*
X181845000Y-72625000D03*
D12*
X183115000Y-70085000D03*
D13*
X179565000Y-70085000D03*
X193015000Y-67545000D03*
D12*
X189465000Y-67545000D03*
D10*
X172955000Y-72625000D03*
D11*
X167875000Y-72625000D03*
D10*
X162795000Y-72625000D03*
D12*
X164065000Y-70085000D03*
D13*
X160515000Y-70085000D03*
X173965000Y-67545000D03*
D12*
X170415000Y-67545000D03*
D10*
X153905000Y-72625000D03*
D11*
X148825000Y-72625000D03*
D10*
X143745000Y-72625000D03*
D12*
X145015000Y-70085000D03*
D13*
X141465000Y-70085000D03*
X154915000Y-67545000D03*
D12*
X151365000Y-67545000D03*
D10*
X134855000Y-72625000D03*
D11*
X129775000Y-72625000D03*
D10*
X124695000Y-72625000D03*
D12*
X125965000Y-70085000D03*
D13*
X122415000Y-70085000D03*
X135865000Y-67545000D03*
D12*
X132315000Y-67545000D03*
D10*
X115805000Y-72625000D03*
D11*
X110725000Y-72625000D03*
D10*
X105645000Y-72625000D03*
D12*
X106915000Y-70085000D03*
D13*
X103365000Y-70085000D03*
X116815000Y-67545000D03*
D12*
X113265000Y-67545000D03*
D10*
X96755000Y-72625000D03*
D11*
X91675000Y-72625000D03*
D10*
X86595000Y-72625000D03*
D12*
X87865000Y-70085000D03*
D13*
X84315000Y-70085000D03*
X97765000Y-67545000D03*
D12*
X94215000Y-67545000D03*
D10*
X77705000Y-72625000D03*
D11*
X72625000Y-72625000D03*
D10*
X67545000Y-72625000D03*
D12*
X68815000Y-70085000D03*
D13*
X65265000Y-70085000D03*
X78715000Y-67545000D03*
D12*
X75165000Y-67545000D03*
D10*
X58655000Y-72625000D03*
D11*
X53575000Y-72625000D03*
D10*
X48495000Y-72625000D03*
D12*
X49765000Y-70085000D03*
D13*
X46215000Y-70085000D03*
X59665000Y-67545000D03*
D12*
X56115000Y-67545000D03*
D10*
X39605000Y-72625000D03*
D11*
X34525000Y-72625000D03*
D10*
X29445000Y-72625000D03*
D12*
X30715000Y-70085000D03*
D13*
X27165000Y-70085000D03*
X40615000Y-67545000D03*
D12*
X37065000Y-67545000D03*
D10*
X231851250Y-53575000D03*
D11*
X236931250Y-53575000D03*
D10*
X242011250Y-53575000D03*
D12*
X240741250Y-56115000D03*
D16*
X244291250Y-56115000D03*
X230841250Y-58655000D03*
D12*
X234391250Y-58655000D03*
D10*
X205657500Y-53575000D03*
D11*
X210737500Y-53575000D03*
D10*
X215817500Y-53575000D03*
D12*
X214547500Y-56115000D03*
D16*
X218097500Y-56115000D03*
X204647500Y-58655000D03*
D12*
X208197500Y-58655000D03*
D10*
X186607500Y-53575000D03*
D11*
X191687500Y-53575000D03*
D10*
X196767500Y-53575000D03*
D12*
X195497500Y-56115000D03*
D16*
X199047500Y-56115000D03*
X185597500Y-58655000D03*
D12*
X189147500Y-58655000D03*
D10*
X167557500Y-53575000D03*
D11*
X172637500Y-53575000D03*
D10*
X177717500Y-53575000D03*
D12*
X176447500Y-56115000D03*
D16*
X179997500Y-56115000D03*
X166547500Y-58655000D03*
D12*
X170097500Y-58655000D03*
D10*
X148507500Y-53575000D03*
D11*
X153587500Y-53575000D03*
D10*
X158667500Y-53575000D03*
D12*
X157397500Y-56115000D03*
D16*
X160947500Y-56115000D03*
X147497500Y-58655000D03*
D12*
X151047500Y-58655000D03*
D10*
X129457500Y-53575000D03*
D11*
X134537500Y-53575000D03*
D10*
X139617500Y-53575000D03*
D12*
X138347500Y-56115000D03*
D16*
X141897500Y-56115000D03*
X128447500Y-58655000D03*
D12*
X131997500Y-58655000D03*
D10*
X110407500Y-53575000D03*
D11*
X115487500Y-53575000D03*
D10*
X120567500Y-53575000D03*
D12*
X119297500Y-56115000D03*
D16*
X122847500Y-56115000D03*
X109397500Y-58655000D03*
D12*
X112947500Y-58655000D03*
D10*
X91357500Y-53575000D03*
D11*
X96437500Y-53575000D03*
D10*
X101517500Y-53575000D03*
D12*
X100247500Y-56115000D03*
D16*
X103797500Y-56115000D03*
X90347500Y-58655000D03*
D12*
X93897500Y-58655000D03*
D10*
X72307500Y-53575000D03*
D11*
X77387500Y-53575000D03*
D10*
X82467500Y-53575000D03*
D12*
X81197500Y-56115000D03*
D16*
X84747500Y-56115000D03*
X71297500Y-58655000D03*
D12*
X74847500Y-58655000D03*
D10*
X53257500Y-53575000D03*
D11*
X58337500Y-53575000D03*
D10*
X63417500Y-53575000D03*
D12*
X62147500Y-56115000D03*
D16*
X65697500Y-56115000D03*
X52247500Y-58655000D03*
D12*
X55797500Y-58655000D03*
D10*
X31826250Y-53575000D03*
D11*
X36906250Y-53575000D03*
D10*
X41986250Y-53575000D03*
D12*
X40716250Y-56115000D03*
D16*
X44266250Y-56115000D03*
X30816250Y-58655000D03*
D12*
X34366250Y-58655000D03*
D10*
X249155000Y-53575000D03*
D11*
X244075000Y-53575000D03*
D10*
X238995000Y-53575000D03*
D12*
X240265000Y-51035000D03*
D13*
X236715000Y-51035000D03*
X250165000Y-48495000D03*
D12*
X246615000Y-48495000D03*
D10*
X230105000Y-53575000D03*
D11*
X225025000Y-53575000D03*
D10*
X219945000Y-53575000D03*
D12*
X221215000Y-51035000D03*
D13*
X217665000Y-51035000D03*
X231115000Y-48495000D03*
D12*
X227565000Y-48495000D03*
D10*
X211055000Y-53575000D03*
D11*
X205975000Y-53575000D03*
D10*
X200895000Y-53575000D03*
D12*
X202165000Y-51035000D03*
D13*
X198615000Y-51035000D03*
X212065000Y-48495000D03*
D12*
X208515000Y-48495000D03*
D10*
X192005000Y-53575000D03*
D11*
X186925000Y-53575000D03*
D10*
X181845000Y-53575000D03*
D12*
X183115000Y-51035000D03*
D13*
X179565000Y-51035000D03*
X193015000Y-48495000D03*
D12*
X189465000Y-48495000D03*
D10*
X172955000Y-53575000D03*
D11*
X167875000Y-53575000D03*
D10*
X162795000Y-53575000D03*
D12*
X164065000Y-51035000D03*
D13*
X160515000Y-51035000D03*
X173965000Y-48495000D03*
D12*
X170415000Y-48495000D03*
D10*
X153905000Y-53575000D03*
D11*
X148825000Y-53575000D03*
D10*
X143745000Y-53575000D03*
D12*
X145015000Y-51035000D03*
D13*
X141465000Y-51035000D03*
X154915000Y-48495000D03*
D12*
X151365000Y-48495000D03*
D10*
X134855000Y-53575000D03*
D11*
X129775000Y-53575000D03*
D10*
X124695000Y-53575000D03*
D12*
X125965000Y-51035000D03*
D13*
X122415000Y-51035000D03*
X135865000Y-48495000D03*
D12*
X132315000Y-48495000D03*
D10*
X115805000Y-53575000D03*
D11*
X110725000Y-53575000D03*
D10*
X105645000Y-53575000D03*
D12*
X106915000Y-51035000D03*
D13*
X103365000Y-51035000D03*
X116815000Y-48495000D03*
D12*
X113265000Y-48495000D03*
D10*
X96755000Y-53575000D03*
D11*
X91675000Y-53575000D03*
D10*
X86595000Y-53575000D03*
D12*
X87865000Y-51035000D03*
D13*
X84315000Y-51035000D03*
X97765000Y-48495000D03*
D12*
X94215000Y-48495000D03*
D10*
X77705000Y-53575000D03*
D11*
X72625000Y-53575000D03*
D10*
X67545000Y-53575000D03*
D12*
X68815000Y-51035000D03*
D13*
X65265000Y-51035000D03*
X78715000Y-48495000D03*
D12*
X75165000Y-48495000D03*
D10*
X58655000Y-53575000D03*
D11*
X53575000Y-53575000D03*
D10*
X48495000Y-53575000D03*
D12*
X49765000Y-51035000D03*
D13*
X46215000Y-51035000D03*
X59665000Y-48495000D03*
D12*
X56115000Y-48495000D03*
D10*
X39605000Y-53575000D03*
D11*
X34525000Y-53575000D03*
D10*
X29445000Y-53575000D03*
D12*
X30715000Y-51035000D03*
D13*
X27165000Y-51035000D03*
X40615000Y-48495000D03*
D12*
X37065000Y-48495000D03*
D10*
X238995000Y-34525000D03*
D11*
X244075000Y-34525000D03*
D10*
X249155000Y-34525000D03*
D12*
X247885000Y-37065000D03*
D16*
X251435000Y-37065000D03*
X237985000Y-39605000D03*
D12*
X241535000Y-39605000D03*
D10*
X230105000Y-34525000D03*
D11*
X225025000Y-34525000D03*
D10*
X219945000Y-34525000D03*
D12*
X221215000Y-31985000D03*
D13*
X217665000Y-31985000D03*
X231115000Y-29445000D03*
D12*
X227565000Y-29445000D03*
D10*
X211055000Y-34525000D03*
D11*
X205975000Y-34525000D03*
D10*
X200895000Y-34525000D03*
D12*
X202165000Y-31985000D03*
D13*
X198615000Y-31985000D03*
X212065000Y-29445000D03*
D12*
X208515000Y-29445000D03*
D10*
X192005000Y-34525000D03*
D11*
X186925000Y-34525000D03*
D10*
X181845000Y-34525000D03*
D12*
X183115000Y-31985000D03*
D13*
X179565000Y-31985000D03*
X193015000Y-29445000D03*
D12*
X189465000Y-29445000D03*
D10*
X162795000Y-34525000D03*
D11*
X167875000Y-34525000D03*
D10*
X172955000Y-34525000D03*
D12*
X171685000Y-37065000D03*
D16*
X175235000Y-37065000D03*
X161785000Y-39605000D03*
D12*
X165335000Y-39605000D03*
D10*
X86595000Y-34525000D03*
D11*
X91675000Y-34525000D03*
D10*
X96755000Y-34525000D03*
D12*
X95485000Y-37065000D03*
D16*
X99035000Y-37065000D03*
X85585000Y-39605000D03*
D12*
X89135000Y-39605000D03*
D10*
X67545000Y-34525000D03*
D11*
X72625000Y-34525000D03*
D10*
X77705000Y-34525000D03*
D12*
X76435000Y-37065000D03*
D16*
X79985000Y-37065000D03*
X66535000Y-39605000D03*
D12*
X70085000Y-39605000D03*
D10*
X48495000Y-34525000D03*
D11*
X53575000Y-34525000D03*
D10*
X58655000Y-34525000D03*
D12*
X57385000Y-37065000D03*
D16*
X60935000Y-37065000D03*
X47485000Y-39605000D03*
D12*
X51035000Y-39605000D03*
D10*
X29445000Y-34525000D03*
D11*
X34525000Y-34525000D03*
D10*
X39605000Y-34525000D03*
D12*
X38335000Y-37065000D03*
D16*
X41885000Y-37065000D03*
X28435000Y-39605000D03*
D12*
X31985000Y-39605000D03*
D17*
X208000000Y-98940000D03*
X208000000Y-93940000D03*
D18*
X208000000Y-96440000D03*
D17*
X222500000Y-93940000D03*
X222500000Y-98940000D03*
X203950000Y-98930000D03*
X203950000Y-93930000D03*
D19*
X203950000Y-96430000D03*
D17*
X189450000Y-98930000D03*
X189450000Y-93930000D03*
X89650000Y-93940000D03*
X89650000Y-98940000D03*
D19*
X89650000Y-96440000D03*
D17*
X75150000Y-98940000D03*
X75150000Y-93940000D03*
X55600000Y-93940000D03*
X55600000Y-98940000D03*
D18*
X55600000Y-96440000D03*
D17*
X70100000Y-93940000D03*
X70100000Y-98940000D03*
D20*
X163890000Y-28250000D03*
X160890000Y-28250000D03*
D21*
X160140000Y-30250000D03*
X164640000Y-30250000D03*
X163140000Y-30250000D03*
D22*
X166090000Y-29400000D03*
X166090000Y-27100000D03*
X158690000Y-29400000D03*
X158690000Y-27100000D03*
D23*
X201010000Y-84380000D03*
X201010000Y-87680000D03*
X167910000Y-84290000D03*
X167910000Y-87590000D03*
X120410000Y-84272500D03*
X120410000Y-87572500D03*
X86950000Y-84380000D03*
X86950000Y-87680000D03*
X230280000Y-84372500D03*
X230280000Y-87672500D03*
X207660000Y-84380000D03*
X207660000Y-87680000D03*
X70210000Y-84410000D03*
X70210000Y-87710000D03*
X47080000Y-84342500D03*
X47080000Y-87642500D03*
D24*
X229280000Y-81437500D03*
X229280000Y-78137500D03*
X223920000Y-81387500D03*
X223920000Y-78087500D03*
X204870000Y-81387500D03*
X204870000Y-78087500D03*
X185820000Y-81387500D03*
X185820000Y-78087500D03*
X166770000Y-81387500D03*
X166770000Y-78087500D03*
X147720000Y-81387500D03*
X147720000Y-78087500D03*
X128670000Y-81387500D03*
X128670000Y-78087500D03*
X109620000Y-81387500D03*
X109620000Y-78087500D03*
X90570000Y-81387500D03*
X90570000Y-78087500D03*
X71520000Y-81387500D03*
X71520000Y-78087500D03*
X52470000Y-81387500D03*
X52470000Y-78087500D03*
X31900000Y-81397500D03*
X31900000Y-78097500D03*
X247890000Y-62397500D03*
X247890000Y-59097500D03*
X225950000Y-62357500D03*
X225950000Y-59057500D03*
X219080000Y-62220000D03*
X219080000Y-58920000D03*
X200030000Y-62220000D03*
X200030000Y-58920000D03*
X180980000Y-62220000D03*
X180980000Y-58920000D03*
X161930000Y-62220000D03*
X161930000Y-58920000D03*
X142880000Y-62220000D03*
X142880000Y-58920000D03*
X123830000Y-62220000D03*
X123830000Y-58920000D03*
X104780000Y-62220000D03*
X104780000Y-58920000D03*
X85730000Y-62220000D03*
X85730000Y-58920000D03*
X66680000Y-62220000D03*
X66680000Y-58920000D03*
X47630000Y-62220000D03*
X47630000Y-58920000D03*
X233270000Y-43320000D03*
X233270000Y-40020000D03*
X224630000Y-43357500D03*
X224630000Y-40057500D03*
X215320000Y-43427500D03*
X215320000Y-40127500D03*
X196250000Y-43357500D03*
X196250000Y-40057500D03*
X157910000Y-43297500D03*
X157910000Y-39997500D03*
X150450000Y-43250000D03*
X150450000Y-39950000D03*
X121410000Y-36917500D03*
X121410000Y-33617500D03*
X106010000Y-43210000D03*
X106010000Y-39910000D03*
X100560000Y-43357500D03*
X100560000Y-40057500D03*
X81510000Y-43357500D03*
X81510000Y-40057500D03*
X62460000Y-43357500D03*
X62460000Y-40057500D03*
X43410000Y-43357500D03*
X43410000Y-40057500D03*
D10*
X153905000Y-34525000D03*
D11*
X148825000Y-34525000D03*
D10*
X143745000Y-34525000D03*
X134855000Y-34525000D03*
D11*
X129775000Y-34525000D03*
D10*
X124695000Y-34525000D03*
X105645000Y-34525000D03*
D11*
X110725000Y-34525000D03*
D10*
X115805000Y-34525000D03*
D25*
X234708750Y-70243750D03*
X234708750Y-94056250D03*
D11*
X249948750Y-70243750D03*
X249948750Y-94056250D03*
D26*
X196450000Y-103422500D03*
D11*
X196450000Y-88182500D03*
D26*
X82150000Y-103422500D03*
D11*
X82150000Y-88182500D03*
D26*
X177400000Y-103422500D03*
D11*
X177400000Y-88182500D03*
D26*
X153587500Y-103422500D03*
D11*
X153587500Y-88182500D03*
D26*
X129775000Y-103422500D03*
D11*
X129775000Y-88182500D03*
D26*
X105962500Y-103422500D03*
D11*
X105962500Y-88182500D03*
D27*
X177380000Y-43640000D03*
D28*
X177380000Y-41640000D03*
M02*
