M48
; DRILL file {KiCad 7.0.11-7.0.11~ubuntu22.04.1} date Sat 29 Jun 2024 22:11:57 CEST
; FORMAT={-:-/ absolute / metric / decimal}
; #@! TF.CreationDate,2024-06-29T22:11:57+02:00
; #@! TF.GenerationSoftware,Kicad,Pcbnew,7.0.11-7.0.11~ubuntu22.04.1
; #@! TF.FileFunction,Plated,1,2,PTH
FMAT,2
METRIC
; #@! TA.AperFunction,Plated,PTH,ViaDrill
T1C0.300
; #@! TA.AperFunction,Plated,PTH,ComponentDrill
T2C0.750
; #@! TA.AperFunction,Plated,PTH,ComponentDrill
T3C0.900
; #@! TA.AperFunction,Plated,PTH,ComponentDrill
T4C1.000
; #@! TA.AperFunction,Plated,PTH,ComponentDrill
T5C1.524
; #@! TA.AperFunction,Plated,PTH,ComponentDrill
T6C3.000
; #@! TA.AperFunction,Plated,PTH,ComponentDrill
T7C3.048
%
G90
G05
T1
X30.995Y-32.201
X31.795Y-32.177
X32.64Y-32.18
X59.85Y-99.27
X60.95Y-30.58
X61.37Y-99.31
X69.394Y-92.364
X69.49Y-91.42
X70.7Y-91.44
X70.7Y-92.24
X81.686Y-92.738
X82.252Y-92.172
X82.32Y-79.98
X82.531Y-93.59
X83.13Y-93.06
X83.854Y-65.226
X91.867Y-76.737
X94.06Y-74.565
X96.39Y-63.876
X97.91Y-71.5
X99.27Y-30.58
X101.11Y-80.037
X106.16Y-46.02
X108.0Y-45.2
X117.16Y-58.055
X117.16Y-69.485
X118.14Y-85.13
X118.8Y-30.89
X119.244Y-31.556
X119.33Y-50.435
X119.55Y-30.29
X120.31Y-46.02
X120.43Y-80.037
X121.206Y-43.794
X121.331Y-40.33
X122.96Y-43.8
X123.44Y-32.45
X123.999Y-31.877
X124.794Y-31.789
X125.66Y-30.48
X126.68Y-39.93
X126.74Y-43.0
X128.87Y-30.781
X131.48Y-30.06
X132.719Y-29.135
X135.71Y-56.715
X136.09Y-62.07
X140.91Y-83.522
X140.92Y-76.18
X141.0Y-45.8
X141.58Y-81.237
X141.59Y-80.037
X141.8Y-46.2
X142.07Y-72.45
X142.13Y-46.931
X144.415Y-60.87
X144.415Y-63.57
X146.02Y-46.2
X147.244Y-49.655
X148.131Y-38.479
X149.759Y-38.411
X153.15Y-50.435
X154.136Y-38.406
X155.51Y-58.055
X159.83Y-59.255
X167.93Y-41.5
X167.93Y-42.7
X169.966Y-44.2
X172.24Y-43.97
X179.14Y-44.05
X179.14Y-45.68
X182.515Y-41.06
X182.515Y-55.97
X183.715Y-41.08
X183.715Y-57.44
X188.07Y-50.37
X190.86Y-50.4
X193.53Y-58.055
X194.11Y-69.485
X202.53Y-80.037
X207.915Y-69.681
X207.915Y-70.881
X212.53Y-70.881
X213.71Y-69.681
T2
X177.38Y-41.64
X177.38Y-43.64
T3
X24.345Y-72.63
X24.355Y-78.02
X24.365Y-67.23
X26.885Y-72.63
X26.895Y-78.02
X26.905Y-67.23
T4
X55.6Y-93.94
X55.6Y-96.44
X55.6Y-98.94
X70.1Y-93.94
X70.1Y-98.94
X75.15Y-93.94
X75.15Y-98.94
X89.65Y-93.94
X89.65Y-96.44
X89.65Y-98.94
X115.31Y-26.89
X115.31Y-42.13
X117.85Y-26.89
X117.85Y-42.13
X120.39Y-26.89
X120.39Y-42.13
X122.93Y-26.89
X122.93Y-42.13
X125.47Y-26.89
X125.47Y-42.13
X128.01Y-26.89
X128.01Y-42.13
X130.55Y-26.89
X130.55Y-42.13
X133.09Y-26.89
X133.09Y-42.13
X135.63Y-26.89
X135.63Y-42.13
X138.17Y-26.89
X138.17Y-42.13
X140.71Y-26.89
X140.71Y-29.43
X140.71Y-31.97
X140.71Y-34.51
X140.71Y-42.13
X143.25Y-26.89
X143.25Y-42.13
X145.79Y-26.89
X145.79Y-42.13
X189.45Y-93.93
X189.45Y-98.93
X203.95Y-93.93
X203.95Y-96.43
X203.95Y-98.93
X208.0Y-93.94
X208.0Y-96.44
X208.0Y-98.94
X222.5Y-93.94
X222.5Y-98.94
T5
X106.915Y-37.065
X113.265Y-39.605
X127.235Y-29.445
X133.585Y-31.985
X146.285Y-29.445
X152.635Y-31.985
T6
X30.715Y-51.035
X30.715Y-70.085
X31.985Y-39.605
X33.096Y-89.135
X34.366Y-58.655
X37.065Y-48.495
X37.065Y-67.545
X38.335Y-37.065
X39.129Y-77.705
X39.446Y-86.595
X40.716Y-56.115
X45.479Y-75.165
X49.765Y-51.035
X49.765Y-70.085
X51.035Y-39.605
X54.527Y-89.135
X55.797Y-58.655
X56.115Y-48.495
X56.115Y-67.545
X57.385Y-37.065
X60.56Y-77.705
X60.56Y-101.517
X60.877Y-86.595
X62.147Y-56.115
X66.91Y-75.165
X66.91Y-98.977
X68.815Y-51.035
X68.815Y-70.085
X70.085Y-39.605
X74.847Y-58.655
X75.165Y-48.495
X75.165Y-67.545
X76.435Y-37.065
X78.34Y-93.897
X79.61Y-77.705
X81.197Y-56.115
X84.69Y-91.358
X85.96Y-75.165
X87.865Y-51.035
X87.865Y-70.085
X89.135Y-39.605
X93.897Y-58.655
X94.215Y-48.495
X94.215Y-67.545
X95.485Y-37.065
X98.66Y-77.705
X100.248Y-56.115
X105.01Y-75.165
X106.915Y-51.035
X106.915Y-70.085
X112.947Y-58.655
X113.265Y-48.495
X113.265Y-67.545
X114.059Y-93.897
X117.71Y-77.705
X119.297Y-56.115
X120.409Y-91.358
X124.06Y-75.165
X125.965Y-51.035
X125.965Y-70.085
X131.998Y-58.655
X132.315Y-48.495
X132.315Y-67.545
X135.49Y-93.897
X136.76Y-77.705
X138.347Y-56.115
X141.84Y-91.358
X143.11Y-75.165
X145.015Y-51.035
X145.015Y-70.085
X151.047Y-58.655
X151.365Y-48.495
X151.365Y-67.545
X155.81Y-77.705
X157.397Y-56.115
X161.684Y-93.897
X162.16Y-75.165
X164.065Y-51.035
X164.065Y-70.085
X165.335Y-39.605
X168.034Y-91.358
X170.097Y-58.655
X170.415Y-48.495
X170.415Y-67.545
X171.685Y-37.065
X174.86Y-77.705
X176.447Y-56.115
X181.21Y-75.165
X183.115Y-31.985
X183.115Y-51.035
X183.115Y-70.085
X189.147Y-58.655
X189.465Y-29.445
X189.465Y-48.495
X189.465Y-67.545
X192.64Y-93.897
X193.91Y-77.705
X195.498Y-56.115
X198.99Y-91.358
X200.26Y-75.165
X202.165Y-31.985
X202.165Y-51.035
X202.165Y-70.085
X208.197Y-58.655
X208.515Y-29.445
X208.515Y-48.495
X208.515Y-67.545
X212.96Y-77.705
X212.96Y-101.517
X214.547Y-56.115
X216.452Y-89.135
X219.31Y-75.165
X219.31Y-98.977
X221.215Y-31.985
X221.215Y-51.035
X221.215Y-70.085
X222.802Y-86.595
X227.565Y-29.445
X227.565Y-48.495
X227.565Y-67.545
X234.391Y-58.655
X236.772Y-77.705
X237.884Y-79.61
X237.884Y-89.135
X240.265Y-51.035
X240.265Y-70.085
X240.741Y-56.115
X241.535Y-39.605
X243.123Y-75.165
X244.234Y-77.07
X244.234Y-86.595
X246.615Y-48.495
X246.615Y-67.545
X247.885Y-37.065
T7
X82.15Y-103.422
X105.962Y-103.422
X129.775Y-103.422
X153.588Y-103.422
X177.4Y-103.422
X196.45Y-103.422
M30
